<svg xmlns="http://www.w3.org/2000/svg" width="20" height="21" viewBox="0 0 20 21" fill="none"><path d="M2 19V10C1.45 10 0.979167 9.80417 0.5875 9.4125C0.195833 9.02083 0 8.55 0 8V6C0 5.45 0.195833 4.97917 0.5875 4.5875C0.979167 4.19583 1.45 4 2 4H5.2C5.11667 3.85 5.0625 3.69167 5.0375 3.525C5.0125 3.35833 5 3.18333 5 3C5 2.16667 5.29167 1.45833 5.875 0.875C6.45833 0.291667 7.16667 0 8 0C8.38333 0 8.74167 0.0708333 9.075 0.2125C9.40833 0.354167 9.71667 0.55 10 0.8C10.2833 0.533333 10.5917 0.333333 10.925 0.2C11.2583 0.0666667 11.6167 0 12 0C12.8333 0 13.5417 0.291667 14.125 0.875C14.7083 1.45833 15 2.16667 15 3C15 3.18333 14.9833 3.35417 14.95 3.5125C14.9167 3.67083 14.8667 3.83333 14.8 4H18C18.55 4 19.0208 4.19583 19.4125 4.5875C19.8042 4.97917 20 5.45 20 6V8C20 8.55 19.8042 9.02083 19.4125 9.4125C19.0208 9.80417 18.55 10 18 10V19C18 19.55 17.8042 20.0208 17.4125 20.4125C17.0208 20.8042 16.55 21 16 21H4C3.45 21 2.97917 20.8042 2.5875 20.4125C2.19583 20.0208 2 19.55 2 19ZM12 2C11.7167 2 11.4792 2.09583 11.2875 2.2875C11.0958 2.47917 11 2.71667 11 3C11 3.28333 11.0958 3.52083 11.2875 3.7125C11.4792 3.90417 11.7167 4 12 4C12.2833 4 12.5208 3.90417 12.7125 3.7125C12.9042 3.52083 13 3.28333 13 3C13 2.71667 12.9042 2.47917 12.7125 2.2875C12.5208 2.09583 12.2833 2 12 2ZM7 3C7 3.28333 7.09583 3.52083 7.2875 3.7125C7.47917 3.90417 7.71667 4 8 4C8.28333 4 8.52083 3.90417 8.7125 3.7125C8.90417 3.52083 9 3.28333 9 3C9 2.71667 8.90417 2.47917 8.7125 2.2875C8.52083 2.09583 8.28333 2 8 2C7.71667 2 7.47917 2.09583 7.2875 2.2875C7.09583 2.47917 7 2.71667 7 3ZM2 6V8H9V6H2ZM9 19V10H4V19H9ZM11 19H16V10H11V19ZM18 8V6H11V8H18Z"></path></svg>