<svg xmlns="http://www.w3.org/2000/svg" width="24" height="24" viewBox="0 0 24 24" fill="none"><path d="M12 13.7036L6.03802 19.6656C5.81496 19.8886 5.53105 20.0002 5.18631 20.0002C4.84157 20.0002 4.55767 19.8886 4.3346 19.6656C4.11153 19.4425 4 19.1586 4 18.8139C4 18.4691 4.11153 18.1852 4.3346 17.9622L10.2966 12.0002L4.3346 6.03821C4.11153 5.81514 4 5.53124 4 5.18649C4 4.84175 4.11153 4.55785 4.3346 4.33478C4.55767 4.11172 4.84157 4.00018 5.18631 4.00018C5.53105 4.00018 5.81496 4.11172 6.03802 4.33478L12 10.2968L17.962 4.33478C18.185 4.11172 18.4689 4.00018 18.8137 4.00018C19.1584 4.00018 19.4423 4.11172 19.6654 4.33478C19.8885 4.55785 20 4.84175 20 5.18649C20 5.53124 19.8885 5.81514 19.6654 6.03821L13.7034 12.0002L19.6654 17.9622C19.8885 18.1852 20 18.4691 20 18.8139C20 19.1586 19.8885 19.4425 19.6654 19.6656C19.4423 19.8886 19.1584 20.0002 18.8137 20.0002C18.4689 20.0002 18.185 19.8886 17.962 19.6656L12 13.7036Z" fill="white" fill-opacity="0.75"></path></svg>