<svg xmlns="http://www.w3.org/2000/svg" x="0px" y="0px" viewBox="0 0 120 120"><path class="logo-path" style="fill:white;" d="M86.6761 52.7103H84.9716L100.312 11.3012C102.358 5.86628 98.3523 0 92.5568 0H87.4432H66.0511H33.2386C14.9148 0 0 15.0971 0 33.6449C0 52.1064 14.9148 67.2897 33.2386 67.2897H35.4545L79.4318 67.7211H81.5625H86.0795C96.4773 67.7211 104.915 76.3479 104.915 86.7865C104.915 97.3113 96.392 105.852 86.0795 105.852H72.8693C71.7614 105.852 70.7386 105.766 69.6307 105.593C67.5852 105.248 66.4773 103.091 67.1591 101.107L73.8068 83.1632C75.2557 79.3674 72.4432 75.3127 68.4375 75.3127H37.0739C34.3466 75.3127 31.9602 77.0381 31.0227 79.5399L20.1989 108.699C18.1534 114.134 22.1591 120 27.9545 120H40.5682H54.5455H86.7614C105 120 120 104.903 120 86.3551C119.915 67.8073 104.915 52.7103 86.6761 52.7103ZM38.0114 53.1416H33.8352C23.4375 53.1416 15 44.5147 15 34.0762C15 23.5514 23.5227 15.0108 33.8352 15.0108H47.0455C50.7955 15.0108 53.3523 18.8066 52.0739 22.3436L41.5909 50.6398C40.9943 52.1927 39.5455 53.1416 38.0114 53.1416Z"></path></svg>