<svg class="chk-wrapper-checked" xmlns="http://www.w3.org/2000/svg" width="24" height="24" viewBox="0 0 24 24" fill="none"><path d="M10.5999 13.4L8.4499 11.25C8.26657 11.0667 8.03324 10.975 7.7499 10.975C7.46657 10.975 7.23324 11.0667 7.0499 11.25C6.86657 11.4333 6.7749 11.6667 6.7749 11.95C6.7749 12.2333 6.86657 12.4667 7.0499 12.65L9.8999 15.5C10.0999 15.7 10.3332 15.8 10.5999 15.8C10.8666 15.8 11.0999 15.7 11.2999 15.5L16.9499 9.85C17.1332 9.66667 17.2249 9.43334 17.2249 9.15C17.2249 8.86667 17.1332 8.63334 16.9499 8.45C16.7666 8.26667 16.5332 8.175 16.2499 8.175C15.9666 8.175 15.7332 8.26667 15.5499 8.45L10.5999 13.4Z" fill="black" fill-opacity="0.87"></path></svg>