<svg width="40" height="40" viewBox="0 0 40 40" fill="none" xmlns="http://www.w3.org/2000/svg">
<path d="M32.3377 18.31C36.4248 23.8926 35.2144 31.7327 29.6341 35.8215C24.0539 39.9103 16.217 38.6993 12.1299 33.1168L3.77702 21.7077C-0.310066 16.1251 0.90038 8.28497 6.48063 4.1962C12.0609 0.107432 19.8978 1.31837 23.9849 6.90092L32.3377 18.31Z" fill="#2FD9FF"/>
<path d="M30.7715 19.4577C34.2246 24.1743 33.2019 30.7983 28.4872 34.2528C23.7726 37.7074 17.1513 36.6843 13.6982 31.9677L5.34532 20.5585C1.89221 15.8419 2.91489 9.21791 7.62956 5.76337C12.3442 2.30884 18.9655 3.33194 22.4186 8.04854L30.7715 19.4577Z" fill="#10BAFF"/>
<path d="M29.5664 20.3403C32.5339 24.3936 31.6551 30.0862 27.6034 33.0549C23.5517 36.0236 17.8616 35.1444 14.894 31.0911L6.54119 19.682C3.57367 15.6286 4.45254 9.9361 8.50421 6.96736C12.5559 3.99862 18.246 4.87785 21.2136 8.93118L29.5664 20.3403Z" fill="#0A94FE"/>
<path d="M28.3613 21.2173C30.8433 24.6073 30.1082 29.3683 26.7196 31.8513C23.3309 34.3342 18.5718 33.5989 16.0899 30.2088L7.73706 18.7997C5.25514 15.4096 5.99019 10.6486 9.37886 8.16568C12.7675 5.68273 17.5266 6.41809 20.0085 9.80815L28.3613 21.2173Z" fill="#0670FA"/>
<path d="M27.1829 22.0955C29.1792 24.8223 28.588 28.6518 25.8623 30.649C23.1367 32.6461 19.3087 32.0546 17.3124 29.3278L8.95954 17.9187C6.96321 15.1919 7.55445 11.3624 10.2801 9.36527C13.0058 7.36812 16.8337 7.9596 18.8301 10.6864L27.1829 22.0955Z" fill="#0245FD"/>
<path d="M25.978 22.9792C27.4887 25.0427 27.0413 27.9407 24.9786 29.452C22.9159 30.9634 20.0191 30.5158 18.5084 28.4523L10.1555 17.0431C8.6448 14.9796 9.09222 12.0816 11.1549 10.5703C13.2176 9.05891 16.1144 9.50652 17.6251 11.57L25.978 22.9792Z" fill="#0126F9"/>
<path d="M24.7728 23.8574C25.7979 25.2576 25.4943 27.2241 24.0946 28.2497C22.695 29.2753 20.7293 28.9715 19.7041 27.5713L11.3513 16.1622C10.3261 14.7619 10.6297 12.7954 12.0294 11.7699C13.4291 10.7443 15.3948 11.048 16.4199 12.4483L24.7728 23.8574Z" fill="#0110EC"/>
<path d="M23.5677 24.7367C24.1072 25.4737 23.9475 26.5087 23.2108 27.0484C22.4741 27.5882 21.4395 27.4283 20.9 26.6914L12.5472 15.2822C12.0076 14.5453 12.1674 13.5103 12.9041 12.9705C13.6407 12.4307 14.6753 12.5906 15.2149 13.3276L23.5677 24.7367Z" fill="#0003AA"/>
<path fill-rule="evenodd" clip-rule="evenodd" d="M30.1333 36.5359C36.036 32.2109 37.3164 23.9177 32.9932 18.0126L24.4365 6.32509C20.1133 0.419969 11.8235 -0.860948 5.9208 3.46409C0.0181001 7.78912 -1.26229 16.0823 3.06096 21.9874L11.6176 33.6749C15.9409 39.58 24.2306 40.861 30.1333 36.5359ZM12.6953 32.8852L4.1387 21.1977C0.251395 15.8881 1.40267 8.43117 6.71016 4.54227C12.0176 0.653361 19.4715 1.80511 23.3588 7.11478L31.9154 18.8023C35.8027 24.1119 34.6514 31.5688 29.344 35.4577C24.0365 39.3466 16.5826 38.1949 12.6953 32.8852Z" fill="white"/>
<path d="M17.9575 35.5116L39.5001 5.87641L38.2817 4.17947L23.3701 20.5937L22.7841 12.8802L20.9491 10.2268L12.3906 20.964L11.8509 6.81745L10.2626 4.56512L4.14063 36.6994L5.26633 38.3193L19.222 22.6146L16.8935 33.8763L17.9575 35.5116Z" fill="#031938"/>
<path d="M17.2428 34.421L38.774 4.87119L37.9934 3.72842L20.8237 24.6439L18.3768 27.9773L16.4966 33.2952L17.2428 34.421Z" fill="#FF6B00"/>
<path d="M17.2428 34.421L38.774 4.87119L37.9934 3.72842L20.8237 24.6439L18.3768 27.9773L16.4966 33.2952L17.2428 34.421Z" fill="url(#paint0_linear_1935_57710)"/>
<path d="M22.3553 20.5595L21.6052 11.1713L20.3206 9.2543L19.6274 11.902L20.3206 21.2699L22.3553 20.5595Z" fill="#FF6B00"/>
<path d="M22.3553 20.5595L21.6052 11.1713L20.3206 9.2543L19.6274 11.902L20.3206 21.2699L22.3553 20.5595Z" fill="url(#paint1_linear_1935_57710)"/>
<path d="M10.8584 5.42465L9.6785 3.71957L9.01086 21.4298L11.4448 22.0405L10.8584 5.42465Z" fill="#FF6B00"/>
<path d="M10.8584 5.42465L9.6785 3.71957L9.01086 21.4298L11.4448 22.0405L10.8584 5.42465Z" fill="url(#paint2_linear_1935_57710)"/>
<path d="M4.56379 37.317L17.3777 22.7948L16.1554 20.5596L12.2537 24.1116L7.29083 29.3263L3.81775 36.2255L4.56379 37.317Z" fill="#FF6B00"/>
<path d="M4.56379 37.317L17.3777 22.7948L16.1554 20.5596L12.2537 24.1116L7.29083 29.3263L3.81775 36.2255L4.56379 37.317Z" fill="url(#paint3_linear_1935_57710)"/>
<path d="M16.8569 31.8699L34.6352 7.42978L20.6341 19.8868L19.884 10.4985L9.72682 21.3639L9.29773 8.55732L8.29355 13.6929L4.65601 34.4894L15.664 22.122L16.4425 29.178L16.8569 31.8699Z" fill="url(#paint4_linear_1935_57710)"/>
<path fill-rule="evenodd" clip-rule="evenodd" d="M34.6352 7.42978L16.8569 31.8699L16.4425 29.178L15.664 22.122L4.65601 34.4894L8.29355 13.6929L9.29773 8.55732L9.72682 21.3639L19.884 10.4985L20.6341 19.8868L34.6352 7.42978ZM19.6322 11.2199L20.376 20.5295L32.7019 9.56295L17.0479 31.0828L16.7484 29.1376L15.8946 21.3987L5.14688 33.4737L8.59694 13.7491L9.08017 11.2778L9.4434 22.119L19.6322 11.2199Z" fill="url(#paint5_linear_1935_57710)"/>
<path fill-rule="evenodd" clip-rule="evenodd" d="M38.0757 3.63983L21.0965 18.7464L20.3353 9.21851L10.2341 20.024L9.68792 3.72323L7.7576 13.5953L3.78674 36.2973L15.2703 23.3955L16.4849 33.3209L38.0757 3.63983ZM15.6674 22.1243L4.65941 34.4917L8.29696 13.6953L9.30114 8.55968L9.73023 21.3663L19.8875 10.5009L20.6375 19.8891L34.6387 7.43214L16.8603 31.8723L15.6674 22.1243Z" fill="#FFE600"/>
<path fill-rule="evenodd" clip-rule="evenodd" d="M35.7028 6.24622L20.7711 19.5312L20.0175 10.0993L9.8778 20.946L9.41213 7.04747L8.11854 13.6632L4.37683 35.0552L15.5334 22.5208L16.7331 32.3241L35.7028 6.24622ZM15.6575 22.1235L4.64954 34.4909L8.28709 13.6944L9.29127 8.55886L9.72035 21.3655L19.8776 10.5001L20.6277 19.8883L34.6288 7.43131L16.8504 31.8715L15.6575 22.1235Z" fill="white"/>
<path d="M18.9591 12.8705C19.1308 12.8555 19.2822 12.9825 19.2972 13.1543L20.3273 24.9266C20.3423 25.0984 20.2153 25.2498 20.0435 25.2649C19.8718 25.2799 19.7204 25.1528 19.7054 24.981L18.6753 13.2088C18.6603 13.037 18.7873 12.8855 18.9591 12.8705Z" fill="#FFE500"/>
<path d="M17.9977 14.4629C17.9813 14.2912 17.8288 14.1653 17.6572 14.1817C17.4856 14.1982 17.3598 14.3506 17.3762 14.5223L18.5311 26.6068C18.5475 26.7784 18.6999 26.9043 18.8715 26.8879C19.0431 26.8715 19.169 26.719 19.1525 26.5473L17.9977 14.4629Z" fill="#FFE500"/>
<path d="M16.7157 15.8966C16.6979 15.7251 16.5444 15.6005 16.373 15.6183C16.2015 15.6362 16.077 15.7897 16.0948 15.9612L17.3745 28.2643C17.3924 28.4358 17.5458 28.5604 17.7173 28.5426C17.8887 28.5247 18.0133 28.3712 17.9954 28.1997L16.7157 15.8966Z" fill="#FFE500"/>
<path d="M15.6305 20.7281C15.7465 20.6005 15.7371 20.403 15.6096 20.287C15.482 20.1709 15.2846 20.1803 15.1686 20.3079L6.39774 29.9566C6.28176 30.0842 6.29113 30.2817 6.41866 30.3977C6.5462 30.5138 6.74361 30.5044 6.85959 30.3768L15.6305 20.7281Z" fill="#FFE500"/>
<path d="M15.3906 18.7283C15.5172 18.8454 15.5249 19.0429 15.4079 19.1696L7.35485 27.8815C7.23781 28.0081 7.04033 28.0159 6.91377 27.8988C6.78721 27.7817 6.77948 27.5841 6.89652 27.4575L14.9495 18.7455C15.0666 18.6189 15.264 18.6112 15.3906 18.7283Z" fill="#FFE500"/>
<path d="M15.2608 17.4191C15.3782 17.2929 15.3712 17.0953 15.245 16.9778C15.1188 16.8603 14.9213 16.8673 14.8038 16.9936L7.16186 25.206C7.0444 25.3323 7.05147 25.5298 7.17764 25.6474C7.30382 25.7649 7.50132 25.7578 7.61878 25.6316L15.2608 17.4191Z" fill="#FFE500"/>
<path d="M8.78065 13.9687C8.91849 13.9642 9.03389 14.0723 9.03841 14.2102L9.28805 21.8229C9.29258 21.9608 9.18451 22.0762 9.04667 22.0808C8.90884 22.0853 8.79343 21.9772 8.78891 21.8393L8.53927 14.2266C8.53475 14.0887 8.64282 13.9732 8.78065 13.9687Z" fill="#FFE500"/>
<path d="M8.2933 18.3266C8.28776 18.1887 8.17156 18.0815 8.03377 18.087C7.89597 18.0925 7.78875 18.2088 7.79429 18.3466L7.9684 22.6806C7.97394 22.8184 8.09013 22.9257 8.22793 22.9202C8.36573 22.9146 8.47295 22.7984 8.46741 22.6605L8.2933 18.3266Z" fill="#FFE500"/>
<path d="M7.3216 22.273C7.45933 22.266 7.57665 22.372 7.58364 22.5098L7.63559 23.5338C7.64257 23.6716 7.53659 23.789 7.39886 23.796C7.26112 23.803 7.14381 23.6969 7.13682 23.5591L7.08487 22.5351C7.07788 22.3974 7.18387 22.28 7.3216 22.273Z" fill="#FFE500"/>
<path d="M29.2518 13.8876C29.3812 13.7736 29.3938 13.5763 29.2799 13.4468C29.166 13.3174 28.9688 13.3048 28.8394 13.4188L20.8609 20.4446C20.7315 20.5585 20.719 20.7558 20.8329 20.8853C20.9468 21.0147 21.144 21.0273 21.2734 20.9134L29.2518 13.8876Z" fill="#FFE500"/>
<path d="M26.1287 17.7894C26.2428 17.9186 26.2307 18.1159 26.1016 18.2301L21.4418 22.3518C21.3126 22.4661 21.1154 22.4539 21.0012 22.3247C20.887 22.1955 20.8991 21.9982 21.0283 21.884L25.6881 17.7623C25.8172 17.648 26.0145 17.6602 26.1287 17.7894Z" fill="#FFE500"/>
<path d="M22.9932 22.5063C23.1212 22.3908 23.1314 22.1934 23.016 22.0653C22.9006 21.9372 22.7032 21.927 22.5752 22.0425L21.2597 23.229C21.1317 23.3444 21.1215 23.5419 21.2369 23.67C21.3523 23.7981 21.5497 23.8083 21.6777 23.6928L22.9932 22.5063Z" fill="#FFE500"/>
<defs>
<linearGradient id="paint0_linear_1935_57710" x1="17.0781" y1="32.0132" x2="17.9523" y2="32.6686" gradientUnits="userSpaceOnUse">
<stop stop-color="#E94201"/>
<stop offset="1" stop-color="#E94201" stop-opacity="0"/>
</linearGradient>
<linearGradient id="paint1_linear_1935_57710" x1="20.5328" y1="16.3361" x2="21.7813" y2="16.1801" gradientUnits="userSpaceOnUse">
<stop stop-color="#E94201"/>
<stop offset="1" stop-color="#E94201" stop-opacity="0"/>
</linearGradient>
<linearGradient id="paint2_linear_1935_57710" x1="9.76029" y1="15.2471" x2="10.9469" y2="15.1846" gradientUnits="userSpaceOnUse">
<stop stop-color="#E94201"/>
<stop offset="1" stop-color="#E94201" stop-opacity="0"/>
</linearGradient>
<linearGradient id="paint3_linear_1935_57710" x1="3.4516" y1="35.7901" x2="4.53031" y2="36.8093" gradientUnits="userSpaceOnUse">
<stop stop-color="#E94201"/>
<stop offset="1" stop-color="#E94201" stop-opacity="0"/>
</linearGradient>
<linearGradient id="paint4_linear_1935_57710" x1="8.92384" y1="11.0812" x2="7.11948" y2="25.5691" gradientUnits="userSpaceOnUse">
<stop stop-color="#FF3E05"/>
<stop offset="0.980612" stop-color="#FFC701"/>
</linearGradient>
<linearGradient id="paint5_linear_1935_57710" x1="15.9275" y1="34.2134" x2="18.5586" y2="19.1062" gradientUnits="userSpaceOnUse">
<stop stop-color="white"/>
<stop offset="1" stop-color="white" stop-opacity="0"/>
</linearGradient>
</defs>
</svg>
