<?xml version="1.0" encoding="utf-8"?>
<svg xmlns="http://www.w3.org/2000/svg">
<symbol id="age" viewBox="0 0 24 24"><path fill="currentColor" d="M12.019 2C17.536 2 22.012 6.486 22 12.012 21.988 17.527 17.524 22 12.019 22 6.476 22 1.988 17.514 2 11.975A9.98 9.98 0 0 1 12.019 2Zm1.202 9.79c.558-.323.893-.794.955-1.376.062-.607.087-1.227 0-1.822-.149-.954-.732-1.61-1.711-1.796a4.741 4.741 0 0 0-1.45-.025c-.968.136-1.588.718-1.823 1.673-.174.681-.162 1.375-.025 2.057.111.52.384.954.855 1.226.025.013.037.038.075.075-.521.31-.819.78-.93 1.35-.149.756-.137 1.525-.037 2.293.099.731.434 1.35 1.115 1.697.596.31 1.228.36 1.885.285 1.054-.123 1.798-.73 1.996-1.76.112-.57.1-1.152.1-1.734.037-.855-.186-1.623-1.005-2.144Zm-5.976 5.55V6.834c-.273 0-.546.012-.806 0-.21-.013-.31.05-.384.248-.236.669-.732 1.003-1.439 1.04-.087 0-.173.013-.273.025V9.3h1.29v8.042h1.612Zm10.973-2.626v-2.07h2.021c0-.334-.012-.644 0-.954 0-.16-.062-.198-.21-.198-.497.012-.992 0-1.488 0h-.348v-2.02H17.04v2.02h-1.996v1.152h2.009v2.057c.384.013.756.013 1.165.013Z"/><path fill="currentColor" d="M10.73 14.268c.024-.298.011-.62.073-.93.087-.495.397-.743.893-.73.484 0 .831.26.868.755.05.607.05 1.24 0 1.846-.05.508-.372.744-.88.756-.52 0-.806-.235-.893-.756-.05-.297-.05-.607-.062-.941Zm0-4.56c.024-.273.024-.546.073-.806.087-.458.372-.669.844-.681.496-.013.793.173.892.644a3.78 3.78 0 0 1 .013 1.623c-.1.471-.484.694-1.005.645-.47-.05-.756-.36-.793-.88-.012-.174 0-.347 0-.533-.012-.012-.025-.012-.025-.012Z"/>
</symbol>
<symbol id="android" viewBox="0 0 24 24"><path fill="currentColor" d="M13.8 7.3a.3.3 0 1 1-.6 0 .3.3 0 0 1 .6 0ZM10.5 7a.3.3 0 1 0 0 .6.3.3 0 0 0 0-.6ZM24 12c0 6.627-5.373 12-12 12S0 18.627 0 12 5.373 0 12 0s12 5.373 12 12ZM7.8 10.282c0-.483-.417-.883-.9-.882-.483-.001-.9.4-.9.883v3.663c0 .484.417.854.899.854.483 0 .9-.37.9-.854v-3.664H7.8Zm7.801-.882H8.399l.001 5.666c0 .517.418.934.935.934h.266v2.125c-.001.482.422.875.905.875a.894.894 0 0 0 .895-.875V16H12.6v2.125c0 .482.425.875.907.875a.892.892 0 0 0 .893-.876V16h.268a.935.935 0 0 0 .934-.934V9.4h-.001Zm0-.602c0-1.353-.723-2.283-1.829-2.903l.563-1.115a.128.128 0 0 0-.045-.166c-.055-.032-.122-.01-.152.049l-.57 1.127a3.704 3.704 0 0 0-3.137 0l-.569-1.127a.109.109 0 0 0-.152-.049c-.056.033-.074.107-.045.166l.563 1.115c-1.106.62-1.829 1.55-1.829 2.903h7.202ZM18 10.282c0-.483-.417-.883-.899-.882-.483-.001-.9.4-.9.883v3.663c0 .484.417.854.9.854.482 0 .899-.37.899-.854v-3.664Z"/>
</symbol>
<symbol id="arrow_expand-close" viewBox="0 0 24 24"><path fill="currentColor" d="m12.468 15.81 5.34-5.302a.645.645 0 0 0 .192-.461.645.645 0 0 0-.192-.461l-.393-.39a.66.66 0 0 0-.928 0l-4.484 4.452-4.49-4.458A.654.654 0 0 0 7.05 9a.655.655 0 0 0-.464.19l-.393.39a.645.645 0 0 0-.192.462c0 .174.068.338.192.46l5.345 5.308c.124.123.29.19.465.19a.654.654 0 0 0 .466-.19Z"/>
</symbol>
<symbol id="arrow_expand-open" viewBox="0 0 24 24"><path fill="currentColor" d="m12.468 8.19 5.34 5.302a.645.645 0 0 1 .192.461.645.645 0 0 1-.192.461l-.393.39a.66.66 0 0 1-.928 0l-4.484-4.452-4.49 4.458a.655.655 0 0 1-.464.19.655.655 0 0 1-.464-.19l-.393-.39A.645.645 0 0 1 6 13.957c0-.174.068-.338.192-.46l5.345-5.308a.655.655 0 0 1 .465-.19c.177 0 .342.067.466.19Z"/>
</symbol>
<symbol id="arrow_next" viewBox="0 0 24 24"><path fill="currentColor" d="m15.81 12.468-5.302 5.34a.645.645 0 0 1-.461.192.645.645 0 0 1-.461-.192l-.39-.393a.66.66 0 0 1 0-.928l4.452-4.484-4.458-4.49A.654.654 0 0 1 9 7.05c0-.176.068-.34.19-.464l.39-.393A.645.645 0 0 1 10.043 6c.174 0 .338.068.46.192l5.308 5.345c.123.124.19.29.19.465a.654.654 0 0 1-.19.466Z"/>
</symbol>
<symbol id="arrow_previous" viewBox="0 0 24 24"><path fill="currentColor" d="m8.19 12.468 5.302 5.34a.645.645 0 0 0 .461.192.645.645 0 0 0 .461-.192l.39-.393a.66.66 0 0 0 0-.928l-4.452-4.484 4.458-4.49A.655.655 0 0 0 15 7.05a.655.655 0 0 0-.19-.464l-.39-.393A.645.645 0 0 0 13.957 6a.645.645 0 0 0-.46.192L8.19 11.537a.655.655 0 0 0-.19.465c0 .177.067.342.19.466Z"/>
</symbol>
<symbol id="bonus" viewBox="0 0 24 24"><path fill="currentColor" fill-rule="evenodd" d="M7.68 3.554a2.12 2.12 0 0 1 1.7-1.532c.25-.044.568-.022.858.062 1.268.352 2.083.378 3.13.101.71-.19.942-.216 1.3-.154a2.113 2.113 0 0 1 1.694 1.62c.093.387.066.647-.176 1.708l-.19.837-3.988.013c-2.197.004-3.993 0-3.993-.013 0-.014-.088-.423-.198-.912-.211-.95-.242-1.338-.136-1.73Zm-.035 5.441c-.63-.158-.726-1.012-.15-1.294.133-.066.577-.075 4.53-.075h4.385l.15.102c.317.21.427.55.286.88-.079.19-.207.295-.462.383l-.22.07.95 1.431c1.013 1.523 1.238 1.924 1.484 2.633.282.81.353 1.237.353 2.183 0 .92-.07 1.374-.326 2.149-.656 1.954-2.294 3.579-4.257 4.213-.837.268-1.295.33-2.39.33-1.106-.004-1.484-.062-2.37-.352C6.11 20.48 4.23 16.704 5.397 13.19c.233-.709.52-1.22 1.514-2.716.51-.77.93-1.405.93-1.413a.686.686 0 0 0-.195-.067Z" clip-rule="evenodd"/>
</symbol>
<symbol id="bonuses" viewBox="0 0 24 24"><path fill="currentColor" fill-rule="evenodd" d="M20.75 7.613h-3.955a4.86 4.86 0 0 0 .697-.56 2.613 2.613 0 0 0 0-3.677c-.98-.987-2.687-.985-3.666 0-.542.544-1.98 2.758-1.781 4.237h-.09c.197-1.48-1.24-3.693-1.781-4.237-.98-.985-2.688-.985-3.666 0a2.616 2.616 0 0 0-.002 3.678c.171.172.415.365.699.559H3.25c-.689 0-1.25.56-1.25 1.25v1.875c0 .345.28.625.625.625h8.125v-3.5h2.5v3.5h8.125c.345 0 .625-.28.625-.625V8.863c0-.69-.56-1.25-1.25-1.25ZM10.676 7.57s-.052.042-.231.042c-.864 0-2.513-.898-3.051-1.44a1.363 1.363 0 0 1 0-1.915c.253-.255.59-.395.947-.395s.693.14.947.395c.842.847 1.68 3.012 1.388 3.313Zm2.878.042c-.178 0-.23-.042-.23-.042-.291-.3.546-2.466 1.389-3.313.503-.51 1.385-.512 1.893 0a1.361 1.361 0 0 1 0 1.915c-.539.542-2.187 1.44-3.052 1.44ZM4.25 13.11v7.003c0 .69.561 1.25 1.25 1.25h5.25V13.11h-6.5Zm9 8.253V13.11h6.5v7.003c0 .69-.56 1.25-1.25 1.25h-5.25Z" clip-rule="evenodd"/>
</symbol>
<symbol id="calendar" viewBox="0 0 24 24"><path fill="currentColor" d="M8 3a1 1 0 0 0-1 1v1h2V4a1 1 0 0 0-1-1Z"/><path fill="currentColor" fill-rule="evenodd" d="M5 5a2 2 0 0 0-2 2v12a2 2 0 0 0 2 2h14a2 2 0 0 0 2-2V7a2 2 0 0 0-2-2H5Zm14 4H5v10h14V9Z" clip-rule="evenodd"/><path fill="currentColor" d="M15 4a1 1 0 1 1 2 0v1h-2V4Zm-4 8.4a1 1 0 1 1 2 0 1 1 0 0 1-2 0Zm3.5 0a1 1 0 1 1 2 0 1 1 0 0 1-2 0Zm-7 3.5a1 1 0 1 1 2 0 1 1 0 0 1-2 0Zm3.5 0a1 1 0 1 1 2 0 1 1 0 0 1-2 0Zm3.5 0a1 1 0 1 1 2 0 1 1 0 0 1-2 0Z"/>
</symbol>
<symbol id="card-maestro" viewBox="0 0 24 24"><path fill="currentColor" fill-rule="evenodd" d="M7.792 18.795A6.792 6.792 0 1 1 12 6.67a6.78 6.78 0 0 0-2.585 5.332A6.78 6.78 0 0 0 12 17.335a6.764 6.764 0 0 1-4.208 1.46ZM12 17.335A6.792 6.792 0 1 0 12 6.67a6.792 6.792 0 0 1 0 10.665Zm.004-10.024c-1.378 1.116-2.183 2.823-2.183 4.63s.805 3.513 2.183 4.63c1.378-1.117 2.183-2.823 2.183-4.63s-.805-3.514-2.183-4.63Z" clip-rule="evenodd"/>
</symbol>
<symbol id="card-master" viewBox="0 0 24 24"><path fill="currentColor" fill-rule="evenodd" d="M7.792 18.795A6.792 6.792 0 1 1 12 6.67a6.78 6.78 0 0 0-2.585 5.332A6.78 6.78 0 0 0 12 17.335a6.763 6.763 0 0 1-4.208 1.46ZM12 17.335A6.792 6.792 0 1 0 12 6.67a6.792 6.792 0 0 1 0 10.665Zm.004-10.024c-1.378 1.116-2.183 2.823-2.183 4.63s.805 3.513 2.183 4.63c1.378-1.117 2.183-2.823 2.183-4.63s-.805-3.514-2.183-4.63Z" clip-rule="evenodd"/>
</symbol>
<symbol id="card-visa" viewBox="0 0 24 24"><path fill="currentColor" d="m11.892 8.593-1.479 6.87h-1.77l1.48-6.87h1.769Zm7.48 4.435.937-2.582.537 2.582h-1.473Zm1.972 2.435H23l-1.43-6.87h-1.522a.808.808 0 0 0-.759.493l-2.647 6.382h1.868l.37-1.025h2.282l.182 1.02Zm-4.642-2.242c0-1.814-2.509-1.913-2.49-2.726 0-.246.242-.493.755-.576a3.356 3.356 0 0 1 1.754.305l.31-1.478a4.795 4.795 0 0 0-1.66-.306c-1.76 0-2.992.931-3.001 2.272 0 .986.882 1.543 1.557 1.873.675.33.927.552.922.852 0 .464-.552.666-1.065.676a3.716 3.716 0 0 1-1.823-.434l-.32 1.508a5.424 5.424 0 0 0 1.97.365c1.868 0 3.09-.922 3.095-2.351l-.004.02ZM9.353 8.592 6.47 15.468H4.593l-1.42-5.485a.754.754 0 0 0-.419-.597A7.442 7.442 0 0 0 1 8.795l.044-.197h3.021a.83.83 0 0 1 .819.7l.749 3.977L7.48 8.598l1.872-.005Z"/>
</symbol>
<symbol id="cashback" viewBox="0 0 20 20"><path fill="currentColor" d="M10.185 2.002c-.236-.006-.472 0-.707.016-1.522.1-2.959.591-4.225 1.544v-.497a.533.533 0 0 0-1.067 0v1.653c0 .475.573.713.91.378a6.931 6.931 0 0 1 9.126-.598 6.93 6.93 0 0 1 1.784 8.97 6.926 6.926 0 0 1-8.657 2.936 6.923 6.923 0 0 1-4.043-8.197.533.533 0 0 0-.378-.653.534.534 0 0 0-.655.373 8.01 8.01 0 0 0 4.666 9.465A8.008 8.008 0 0 0 16.929 14a8.006 8.006 0 0 0-2.057-10.35 7.976 7.976 0 0 0-4.688-1.649Zm-.183 2.54A5.468 5.468 0 0 0 4.54 10a5.471 5.471 0 0 0 5.462 5.46A5.467 5.467 0 0 0 15.458 10a5.464 5.464 0 0 0-5.456-5.458Zm0 2.106a.534.534 0 0 1 .53.536v.082c.534.073.991.403 1.234.864a.534.534 0 0 1-.946.496.566.566 0 0 0-.508-.308h-.496a.563.563 0 0 0-.575.575c0 .328.248.575.575.575h.37c.9 0 1.638.742 1.638 1.642 0 .781-.556 1.44-1.291 1.602v.106a.533.533 0 0 1-1.068 0v-.083a1.651 1.651 0 0 1-1.231-.861.534.534 0 1 1 .945-.496.57.57 0 0 0 .511.306h.496c.328 0 .57-.246.57-.574a.559.559 0 0 0-.57-.575h-.37a1.65 1.65 0 0 1-1.642-1.642 1.65 1.65 0 0 1 1.291-1.6v-.11a.533.533 0 0 1 .537-.535Z"/>
</symbol>
<symbol id="casino-real-money" viewBox="0 0 24 24"><path fill="currentColor" d="M21.259 8.216c-.16-.39-.63-.529-.995-.318-.334.193-.458.61-.317.969a8.55 8.55 0 0 1 .59 3.133c0 1.09-.203 2.149-.59 3.133-.14.359-.017.776.317.969.365.211.835.072.995-.319A9.975 9.975 0 0 0 22 12a9.976 9.976 0 0 0-.741-3.784Z"/><path fill="currentColor" fill-rule="evenodd" d="M12 4.623c4.06 0 7.364 3.309 7.364 7.377S16.061 19.378 12 19.378c-4.06 0-7.364-3.31-7.364-7.378S7.939 4.623 12 4.623ZM6.1 12c0 .324.261.587.585.587a.587.587 0 0 0 0-1.174A.587.587 0 0 0 6.1 12Zm11.8 0a.587.587 0 1 0-1.172 0 .587.587 0 1 0 1.172 0Zm-5.134-4.289v-.516a.516.516 0 0 0-.516-.517h-.537a.51.51 0 0 0-.51.511v.512l-.364.088c-1.068.282-1.875 1.336-1.875 2.463 0 .673.255 1.273.755 1.774.588.59 1.068.757 2.187.757.6 0 .766.02.938.099.635.292.802 1.049.349 1.539-.26.277-.49.344-1.188.344-.349 0-.708-.026-.807-.057-.266-.089-.547-.386-.62-.652a.32.32 0 0 0-.306-.23H9.226a.24.24 0 0 0-.236.271 2.624 2.624 0 0 0 1.223 1.873c.193.126.714.308.86.308.13 0 .13 0 .13.522 0 .288.233.522.521.522h.526a.516.516 0 0 0 .516-.517v-.516l.234-.032c.365-.057.943-.375 1.27-.704.97-.97.975-2.567.006-3.558-.552-.564-1.172-.778-2.286-.778-.61 0-.735-.015-.933-.11-.625-.307-.703-1.21-.14-1.643.197-.15.208-.151.996-.167h.004c.77-.015.807-.015 1.02.11.22.13.407.402.475.673a.184.184 0 0 0 .18.146h1.166a.219.219 0 0 0 .216-.25c-.151-1.096-.943-1.993-1.948-2.207l-.26-.058Z" clip-rule="evenodd"/><path fill="currentColor" d="M18.68 6.674c.24.3.663.401.996.208.365-.21.48-.687.22-1.02a10 10 0 0 0-6.533-3.786c-.42-.058-.777.28-.777.704 0 .388.301.706.684.762a8.466 8.466 0 0 1 4.766 2.411c.23.23.444.47.643.72Zm-.644 11.373a8.466 8.466 0 0 1-4.766 2.41c-.383.058-.684.375-.684.763 0 .423.357.762.777.704a10 10 0 0 0 6.534-3.785c.258-.334.144-.81-.22-1.021-.334-.193-.757-.093-.997.208-.2.25-.415.491-.644.72ZM5.32 17.326c-.24-.3-.663-.401-.996-.209-.365.212-.48.688-.22 1.022a9.999 9.999 0 0 0 6.533 3.785c.42.058.777-.28.777-.704 0-.388-.301-.705-.684-.762a8.466 8.466 0 0 1-4.766-2.411 8.53 8.53 0 0 1-.643-.72ZM3.464 12c0-1.09.202-2.148.589-3.133.14-.359.017-.776-.317-.969-.365-.211-.835-.072-.995.318A9.976 9.976 0 0 0 2 12c0 1.338.264 2.616.741 3.784.16.39.63.529.995.318.334-.193.458-.61.317-.969A8.555 8.555 0 0 1 3.463 12Zm2.5-6.047a8.466 8.466 0 0 1 4.766-2.41c.383-.057.684-.375.684-.763 0-.423-.357-.762-.777-.704A9.999 9.999 0 0 0 4.103 5.86c-.258.334-.144.81.22 1.021.334.193.757.093.998-.208.199-.25.414-.491.643-.72Z"/>
</symbol>
<symbol id="check" viewBox="0 0 24 24"><path fill="currentColor" d="M18.391 6.571a.803.803 0 0 0-1.132.086l-7.71 8.978-2.866-2.68a.803.803 0 1 0-1.097 1.172l2.566 2.4a2 2 0 0 0 2.884-.158l7.441-8.666a.803.803 0 0 0-.086-1.132Z"/>
</symbol>
<symbol id="cherry" viewBox="0 0 24 24"><path fill="currentColor" fill-rule="evenodd" d="M7.423 7.86c.875 0 1.646-.245 2.283-.557a10.24 10.24 0 0 0-1.11 4.167c-2.584.284-4.61 2.501-4.61 5.217C3.986 19.596 6.299 22 9.142 22c.876 0 1.715-.252 2.468-.675a6.588 6.588 0 0 1-1.895-4.637c0-1.8.727-3.429 1.895-4.6a5.197 5.197 0 0 0-1.87-.631c.249-4.142 3.307-7.558 7.25-8.182a8.658 8.658 0 0 0-1.546 4.97v3.228c-2.57.296-4.583 2.507-4.583 5.214 0 2.908 2.313 5.313 5.156 5.313 2.843 0 5.156-2.405 5.156-5.313 0-2.707-2.012-4.918-4.583-5.214V8.245c0-1.982.754-3.844 2.124-5.245l.978-1h-1.383c-2.691 0-5.13 1.122-6.895 2.933-.463-.455-1.948-1.761-3.99-1.761-2.313 0-3.927 1.686-4.132 1.9l-.02.02-.432.424.433.423.019.02c.205.214 1.819 1.9 4.131 1.9Zm8.594 7.07c-.948 0-1.719.788-1.719 1.758h-1.146c0-1.616 1.286-2.93 2.865-2.93v1.172Zm-8.594 1.758c0-.97.771-1.758 1.72-1.758v-1.172c-1.58 0-2.866 1.314-2.866 2.93h1.146Z" clip-rule="evenodd"/>
</symbol>
<symbol id="clock" viewBox="0 0 24 24"><path fill="currentColor" d="M10.678 2.054c-3.423.494-6.286 2.582-7.739 5.642-.4.842-.663 1.674-.85 2.704-.118.64-.118 2.558 0 3.197.408 2.215 1.31 3.968 2.825 5.482 1.51 1.51 3.286 2.426 5.459 2.821.568.104 2.078.141 2.708.07 2.778-.319 5.294-1.758 6.94-3.972.973-1.303 1.565-2.69 1.87-4.377.123-.668.146-2.079.048-2.845a10.028 10.028 0 0 0-8.097-8.632c-.55-.104-.808-.127-1.683-.141-.705-.01-1.175.004-1.48.051Zm1.683 4.002c.23.094.423.282.532.512.08.174.089.348.089 2.492v2.304l1.805.902c1.538.772 1.83.936 1.97 1.1a.963.963 0 0 1-.32 1.524c-.456.226-.465.226-2.858-.969-1.406-.7-2.163-1.104-2.276-1.212-.305-.297-.296-.193-.296-3.226 0-2.619.005-2.764.09-2.929.249-.48.794-.696 1.264-.498Z"/>
</symbol>
<symbol id="close" viewBox="0 0 24 24"><path fill="currentColor" fill-rule="evenodd" d="M5.234 5.234a.797.797 0 0 1 1.127 0L12 10.872l5.639-5.638a.797.797 0 1 1 1.127 1.127l-5.638 5.64 5.638 5.638a.798.798 0 0 1-1.127 1.127L12 13.128l-5.639 5.638a.797.797 0 1 1-1.127-1.127L10.872 12 5.234 6.361a.797.797 0 0 1 0-1.127Z" clip-rule="evenodd"/>
</symbol>
<symbol id="cookies" viewBox="0 0 24 24"><path fill="currentColor" d="M19.98 10.547c-.468.148-.96.246-1.453.246a4.258 4.258 0 0 1-4.212-4.212c0-.443.074-.886.222-1.305a3.169 3.169 0 0 1-.69-3.104A11.715 11.715 0 0 0 12 2C6.483 2 2 6.483 2 12s4.483 10 10 10 10-4.483 10-10c0-.222 0-.443-.025-.665a3.93 3.93 0 0 1-1.995-.788ZM6.581 9.315c1.724 0 1.724 2.71 0 2.71s-1.97-2.71 0-2.71Zm1.478 8.449c-1.97 0-1.97-2.956 0-2.956s1.97 2.956 0 2.956ZM11.015 3.33c1.724 0 1.724 2.956 0 2.956s-1.97-2.956 0-2.956Zm1.231 7.512c1.478 0 1.478 1.97 0 1.97s-1.231-1.97 0-1.97Zm1.724 8.104c-1.477 0-1.477-1.97 0-1.97 1.478 0 1.232 1.97 0 1.97Zm4.68-3.843c-1.231 0-1.231-1.97 0-1.97 1.232 0 1.232 1.97 0 1.97Z"/>
</symbol>
<symbol id="copy" viewBox="0 0 24 24"><path fill="currentColor" d="M18.855 5.636h-10a1.818 1.818 0 0 0-1.819 1.819v12.727A1.818 1.818 0 0 0 8.855 22h10a1.818 1.818 0 0 0 1.818-1.818V7.455a1.818 1.818 0 0 0-1.818-1.819ZM16.127 2.91a.91.91 0 0 0-.909-.91h-10A1.818 1.818 0 0 0 3.4 3.818v11.818a.91.91 0 0 0 1.818 0V3.818h10a.91.91 0 0 0 .91-.909Z"/>
</symbol>
<symbol id="credit-card" viewBox="0 0 24 24"><path fill="currentColor" fill-rule="evenodd" d="M2 6a2 2 0 0 1 2-2h16a2 2 0 0 1 2 2v6H2V6Zm0 10h20v2a2 2 0 0 1-2 2H4a2 2 0 0 1-2-2v-2ZM5 6a1 1 0 0 0-1 1v2a1 1 0 0 0 1 1h3a1 1 0 0 0 1-1V7a1 1 0 0 0-1-1H5Z" clip-rule="evenodd"/>
</symbol>
<symbol id="currency" viewBox="0 0 24 24"><path fill="currentColor" fill-rule="evenodd" d="M4.499 12.028a6.284 6.284 0 0 1 4.633-2.607 6.308 6.308 0 0 1 5.856 2.998c.614.993.915 2.08.915 3.276 0 .83-.106 1.431-.375 2.182a6.353 6.353 0 0 1-3.894 3.792 6.318 6.318 0 0 1-4.672-.254 6.332 6.332 0 0 1-3.061-3.061c-.958-2.095-.735-4.457.598-6.325Zm5.61.391c0-.289-.086-.453-.285-.547-.172-.082-.247-.082-.419.004-.21.106-.312.29-.312.57l-.004.24-.254.113c-.65.289-1.107 1.094-1.009 1.778.125.93.762 1.537 1.716 1.627.419.043.653.191.782.496a.766.766 0 0 1-.473 1.009c-.242.082-.5.027-.747-.16-.133-.098-.273-.168-.363-.18a.546.546 0 0 0-.493.215c-.098.148-.086.438.02.59.094.133.488.407.688.477.137.05.137.055.137.29 0 .273.086.445.281.566.227.137.493.078.653-.152.063-.086.082-.172.082-.368v-.254l.254-.121c.301-.14.641-.45.798-.723a1.789 1.789 0 0 0-.325-2.205c-.324-.301-.696-.454-1.204-.497-.512-.047-.801-.363-.766-.84.012-.184.039-.266.133-.38.27-.34.704-.414 1.036-.183.332.234.371.25.535.25.133 0 .192-.024.31-.129.124-.117.144-.16.16-.356l.02-.223-.216-.207a1.975 1.975 0 0 0-.477-.332l-.258-.125v-.243Z" clip-rule="evenodd"/><path fill="currentColor" fill-rule="evenodd" d="M15.7 3.224a5.548 5.548 0 0 0-1.717.571 5.583 5.583 0 0 0-2.987 4.497c-.026.238-.036.338.008.39.033.039.094.052.2.075l.07.015a7.19 7.19 0 0 1 3.37 1.9 7.183 7.183 0 0 1 1.9 3.374l.07.3.255-.023c.46-.039.836-.097 1.133-.18a5.585 5.585 0 0 0 4.137-5.637c-.122-2.713-2.104-4.89-4.825-5.297-.371-.055-1.247-.047-1.614.015Zm2.463 2.823c.281.078.39.18.39.364 0 .097-.027.168-.085.222-.137.122-.2.13-.45.063-.344-.09-.794-.055-1.08.086-.214.106-.691.551-.691.645 0 .023.301.04.766.04h.766l.114.112c.121.122.14.231.066.368-.09.176-.125.18-1.055.184h-.892v.504l1.806.023.094.11c.122.14.122.301-.004.434l-.093.102h-.786c-.43 0-.782.015-.782.035 0 .062.266.379.407.488.37.282.79.383 1.239.297.328-.062.442-.023.524.176.144.337-.18.536-.853.532a2.935 2.935 0 0 1-.516-.055 2.327 2.327 0 0 1-1.434-1.184l-.126-.243-.367-.015c-.344-.016-.375-.024-.461-.125a.316.316 0 0 1-.004-.438c.078-.09.129-.106.371-.125l.282-.02V8.17h-.196c-.469 0-.696-.29-.453-.575.09-.102.117-.11.461-.121l.367-.016.145-.281a2.192 2.192 0 0 1 2.53-1.13ZM7.08 2.02a6.554 6.554 0 0 0-.916.196c-1.97.656-3.26 2.513-3.158 4.542.027.5.066.735.203 1.177.266.849.82 1.67 1.497 2.197l.235.188.21-.172A7.543 7.543 0 0 1 7.334 8.96c.837-.274 1.42-.368 2.28-.372.46 0 .535-.012.535-.062.004-.176.086-.825.14-1.091A6.59 6.59 0 0 1 11.514 4.8l.168-.227-.145-.262C10.883 3.123 9.62 2.26 8.233 2.048a5.257 5.257 0 0 0-1.154-.028Zm-.646 2.092c.047.05.25.352.458.676.207.32.394.606.418.633.031.036.145-.117.453-.602.227-.351.454-.676.505-.719.207-.168.512-.027.512.235 0 .12-.07.258-.372.73l-.375.583.262.024c.223.02.278.039.356.129.117.14.117.312-.008.434-.09.093-.121.097-.528.097h-.43v.352h.426c.407 0 .426.004.528.102.067.07.102.145.102.227-.004.262-.153.336-.66.336h-.396v.203c0 .407-.215.618-.492.489-.145-.07-.211-.235-.211-.528v-.164h-.415c-.403 0-.414-.004-.528-.114-.144-.148-.148-.308-.011-.45.101-.097.12-.1.527-.1h.427v-.353h-.43c-.407 0-.438-.004-.528-.097-.125-.122-.125-.294-.004-.434.078-.094.125-.11.352-.125.14-.008.258-.024.258-.032s-.168-.277-.372-.594c-.41-.645-.445-.758-.273-.926.125-.13.336-.133.45-.012Z" clip-rule="evenodd"/>
</symbol>
<symbol id="darkmode" viewBox="0 0 24 24"><path fill="currentColor" d="M9.071 4.929 12 2l2.929 2.929h4.142V9.07L22 12l-2.929 2.929v4.142H14.93L12 22l-2.929-2.929H4.93V14.93L2 12l2.929-2.929V4.93H9.07Zm2.701 11.957c2.825 0 5.114-2.176 5.114-4.862 0-2.685-2.29-4.862-5.114-4.862-.544 0-1.301.168-2.272.505 1.277 1.315 1.915 2.767 1.915 4.357 0 1.59-.71 3.006-2.133 4.248 1.057.41 1.887.615 2.49.615Z"/>
</symbol>
<symbol id="device-split" viewBox="0 0 24 24"><path fill="currentColor" fill-rule="evenodd" d="M3.455 4h17.09C21.35 4 22 4.627 22 5.4v10.4c0 .773-.65 1.4-1.455 1.4h-7.09v1.094l1.803.225A.744.744 0 0 1 15.166 20H8.834a.744.744 0 0 1-.092-1.481l1.803-.225V17.2h-7.09C2.65 17.2 2 16.573 2 15.8V5.4C2 4.627 2.65 4 3.455 4ZM13 15.406h7V11.57h-7v3.836Zm-2 0V11.57H4v3.836h7ZM4 9.57h7V5.706H4V9.57Zm9-3.864h7V9.57h-7V5.706Z" clip-rule="evenodd"/>
</symbol>
<symbol id="device" viewBox="0 0 24 24"><path fill="currentColor" d="M20.546 4H3.454C2.65 4 2 4.627 2 5.4v10.4c0 .773.65 1.4 1.455 1.4h7.09v1.094l-1.803.225A.744.744 0 0 0 8.834 20h6.332a.744.744 0 0 0 .092-1.481l-1.803-.225V17.2h7.09c.804 0 1.455-.627 1.455-1.4V5.4c0-.773-.65-1.4-1.454-1.4ZM20 15.406H4v-9.7h16v9.7Z"/>
</symbol>
<symbol id="dm-night" viewBox="0 0 24 24"><path fill="currentColor" d="M9.809 21c5.228 0 9.466-4.03 9.466-9S15.037 3 9.81 3c-1.007 0-2.409.312-4.206.935C7.967 6.369 9.148 9.057 9.148 12c0 2.943-1.316 5.564-3.948 7.863C7.157 20.621 8.693 21 9.809 21Z"/>
</symbol>
<symbol id="done" viewBox="0 0 24 24"><path fill="currentColor" fill-rule="evenodd" d="M12 22c5.523 0 10-4.477 10-10S17.523 2 12 2 2 6.477 2 12s4.477 10 10 10Zm5.707-12.293a1 1 0 0 0-1.414-1.414L10 14.586l-2.293-2.293a1 1 0 0 0-1.414 1.414l3 3a1 1 0 0 0 1.414 0l7-7Z" clip-rule="evenodd"/>
</symbol>
<symbol id="dot" viewBox="0 0 20 20"><rect width="8" height="8" x="6" y="6" fill="currentColor" rx="4"/>
</symbol>
<symbol id="edit" viewBox="0 0 24 24"><path fill="currentColor" d="M21 8.018 15.982 3l-2.15 2.15.716.717-.717.717-.716-.717-7.896 7.895 5.018 5.018 7.896-7.895-.717-.716.716-.717.717.716L21 8.018ZM4.154 19.846c1.386 1.386 3.472 1.546 4.66.358a756.72 756.72 0 0 0-1.74-1.738c-.096-.097-.193-.195-.77-.77l-2.509-2.51c-1.187 1.188-1.027 3.274.359 4.66Z"/>
</symbol>
<symbol id="eye-invisible" viewBox="0 0 24 24"><path fill="currentColor" d="M3.496 3.928c-.305.305-.555.574-.555.594 0 .023.55.59 1.226 1.265l1.226 1.226-.359.3a10.915 10.915 0 0 0-2.823 3.765L2 11.543l.164.375a10.828 10.828 0 0 0 4.701 5.126c2.292 1.265 5.143 1.64 7.693 1.004.34-.086 1.253-.375 1.347-.43.043-.023.421.332 1.581 1.488l1.523 1.523.578-.578.574-.574-8.056-8.055L4.054 3.37l-.558.558ZM8.65 10.27l.687.695-.04.254c-.073.5.013.976.263 1.503.34.703.894 1.187 1.64 1.429.23.074.359.09.85.094h.575l.683.683.683.68-.304.124a4.49 4.49 0 0 1-3.354.036 4.573 4.573 0 0 1-2.808-3.46 4.972 4.972 0 0 1 .078-1.847c.098-.367.297-.882.336-.882.012 0 .332.312.71.69Zm2.198-5.475c-.625.07-1.343.219-1.913.395-.258.078-.48.156-.496.167-.016.016.406.461.94.996l.97.969.327-.106a4.388 4.388 0 0 1 3.3.254 4.52 4.52 0 0 1 2.339 5.443l-.094.277 1.316 1.316c.722.726 1.335 1.32 1.363 1.32.078 0 1.14-1.082 1.46-1.484a11.433 11.433 0 0 0 1.492-2.46l.148-.335-.176-.395a11.66 11.66 0 0 0-1.452-2.393c-.36-.453-1.281-1.367-1.734-1.715C17.1 5.85 15.444 5.14 13.554 4.85c-.683-.106-2.046-.133-2.706-.055Z"/><path fill="currentColor" d="M13.269 10.242c.773.773 1.421 1.406 1.44 1.406.036 0 .009-.363-.058-.703-.054-.285-.304-.812-.503-1.066-.485-.62-1.309-1.042-2.027-1.042h-.258l1.406 1.405Z"/>
</symbol>
<symbol id="eye-visibility" viewBox="0 0 24 24"><path fill="currentColor" d="M11.688 4.764c-2.187.062-4.37.828-6.111 2.136-1.492 1.12-2.718 2.675-3.433 4.346l-.136.324.136.32c1.367 3.202 4.288 5.572 7.744 6.283 1.269.261 2.955.258 4.244-.004 3.436-.703 6.357-3.077 7.723-6.279l.137-.32-.137-.324c-.71-1.668-1.893-3.175-3.377-4.307a10.764 10.764 0 0 0-6.79-2.175Zm1.097 2.339c.96.18 1.75.593 2.417 1.265a4.438 4.438 0 0 1 1.327 3.202c0 1.226-.46 2.339-1.327 3.202A4.438 4.438 0 0 1 12 16.099a4.438 4.438 0 0 1-3.202-1.327 4.438 4.438 0 0 1-1.327-3.202c0-1.226.46-2.339 1.327-3.202a4.392 4.392 0 0 1 3.167-1.324c.3-.004.625.02.82.059Z"/><path fill="currentColor" d="M11.512 8.891a2.59 2.59 0 0 0-1.445.781c-.53.535-.777 1.136-.777 1.898 0 .773.246 1.367.797 1.913.546.55 1.14.797 1.913.797.773 0 1.367-.246 1.913-.797.55-.546.797-1.14.797-1.913 0-.773-.246-1.367-.797-1.913-.511-.516-1.066-.762-1.796-.8a2.671 2.671 0 0 0-.605.034Z"/>
</symbol>
<symbol id="facebook" viewBox="0 0 24 24"><path fill="currentColor" d="M12.507 21v-9.012h2.548L15.458 9h-2.951V7.504c0-.78.219-1.523 1.177-1.523H15.6V3h-2.72c-2.287 0-2.91 1.757-2.91 4.193V9H8.4v2.988h1.57V21h2.537Z"/>
</symbol>
<symbol id="female" viewBox="0 0 24 24"><path fill="currentColor" d="M11.22 2.023A7.277 7.277 0 0 0 7.406 3.67c-2.35 1.963-3.17 5.244-2.025 8.11a7.171 7.171 0 0 0 3.437 3.726c.617.308 1.192.5 1.962.656.086.016.086.024.086.696v.68l-.574.016c-.516.016-.602.028-.794.114a1.102 1.102 0 0 0-.579.578c-.082.18-.094.25-.078.513.02.352.13.574.387.797.25.215.434.258 1.08.258h.558v.599c0 .781.043.938.348 1.243.333.332.688.418 1.138.285.16-.047.262-.113.434-.285.305-.305.348-.462.348-1.244v-.598h.56c.644 0 .828-.043 1.078-.258.255-.219.364-.442.388-.782.023-.363-.055-.586-.294-.84-.274-.294-.469-.36-1.153-.38l-.579-.015v-.68c0-.673 0-.68.09-.697 1.623-.328 2.874-1.004 3.941-2.127a7.1 7.1 0 0 0 1.595-7.178c-.832-2.506-2.979-4.328-5.626-4.782-.41-.07-1.52-.098-1.916-.05Zm1.555 2.288c2.05.332 3.672 1.943 4.04 4.007.081.458.062 1.31-.04 1.799-.207.981-.664 1.798-1.42 2.525-.93.896-2.048 1.346-3.354 1.346a4.709 4.709 0 0 1-3.366-1.357 4.71 4.71 0 0 1-1.392-2.452c-.13-.551-.145-1.411-.04-1.95.404-2.022 1.995-3.578 3.993-3.914a5.775 5.775 0 0 1 1.58-.004Z"/>
</symbol>
<symbol id="file" viewBox="0 0 24 24"><path fill="currentColor" d="M10.127 10.75a1.875 1.875 0 1 0 0-3.751 1.875 1.875 0 0 0 0 3.751Z"/><path fill="currentColor" d="M19.5 19.5A2.5 2.5 0 0 1 17 22H7a2.5 2.5 0 0 1-2.5-2.5v-15A2.5 2.5 0 0 1 7 2h6.875L19.5 7.625V19.5ZM7 3.25A1.25 1.25 0 0 0 5.75 4.5V17l2.78-2.78a.625.625 0 0 1 .763-.094L12 15.75l2.696-3.775a.626.626 0 0 1 .95-.079L18.25 14.5V7.625h-2.5a1.875 1.875 0 0 1-1.875-1.875v-2.5H7Z"/>
</symbol>
<symbol id="filter" viewBox="0 0 24 24"><path fill="currentColor" d="M3.81 3.623c-.731.171-1.34.804-1.522 1.572-.108.465.019 1.106.308 1.531.067.1 1.64 1.852 3.496 3.894l3.379 3.713.009 3.604c.013 3.564.013 3.61.108 3.732.221.302.587.41.88.27.087-.04 1-.75 2.029-1.576 1.35-1.08 1.897-1.545 1.951-1.658.073-.144.082-.347.082-2.267v-2.105l2.995-3.293c1.644-1.811 3.193-3.514 3.437-3.785.497-.552.682-.877.763-1.356.131-.772-.27-1.626-.966-2.041-.506-.303.05-.285-8.781-.28-4.527.004-8.068.022-8.167.045Z"/>
</symbol>
<symbol id="flash" viewBox="0 0 20 20"><path fill="currentColor" d="M9.491.571c-.074.053-.759 1.306-2.535 4.623-2.73 5.114-2.573 4.771-2.338 5.082l.118.153 1.87.012c1.481.008 1.868.02 1.854.06-.01.029-.745 1.927-1.635 4.22-1.206 3.095-1.622 4.203-1.622 4.312 0 .294.225.512.47.46.114-.025.621-.617 4.856-5.695 2.603-3.115 4.752-5.715 4.779-5.775a.525.525 0 0 0-.02-.464c-.118-.233-.101-.233-1.585-.253l-1.367-.02 1.585-3.063C15.419 1.32 15.503 1.148 15.506.97c0-.165-.017-.21-.11-.322l-.108-.133L12.44.503C9.706.495 9.592.499 9.49.571Z"/>
</symbol>
<symbol id="gamepad" viewBox="0 0 20 20"><path fill="currentColor" fill-rule="evenodd" d="M2.851 10.41A4.167 4.167 0 1 1 9.167 5h1.666a4.167 4.167 0 1 1 6.485 5.226l.788 2.943a2 2 0 0 1-1.414 2.45l-.966.259a2 2 0 0 1-2.45-1.415l-.85-3.176A4.183 4.183 0 0 1 10.832 10H9.167a4.188 4.188 0 0 1-1.34 1.16l-.813 3.032a2 2 0 0 1-2.45 1.414l-.965-.259a2 2 0 0 1-1.415-2.45l.667-2.487ZM12.5 8.334a.833.833 0 1 0 0-1.667.833.833 0 0 0 0 1.667Zm-5-.834a1.667 1.667 0 1 1-3.333 0 1.667 1.667 0 0 1 3.333 0Zm6.667-.833a.833.833 0 1 0 0-1.667.833.833 0 0 0 0 1.667Zm.833 2.5a.833.833 0 1 1-1.667 0 .833.833 0 0 1 1.667 0Zm.833-.833a.833.833 0 1 0 0-1.667.833.833 0 0 0 0 1.667Z" clip-rule="evenodd"/>
</symbol>
<symbol id="google" viewBox="0 0 24 24"><path fill="currentColor" d="M2.5 12c0-5.238 4.262-9.5 9.5-9.5 2.116 0 4.118.68 5.79 1.968l-2.207 2.868A5.824 5.824 0 0 0 12 6.12 5.888 5.888 0 0 0 6.119 12 5.888 5.888 0 0 0 12 17.881a5.891 5.891 0 0 0 5.596-4.072H12v-3.618h9.5V12c0 5.238-4.262 9.5-9.5 9.5S2.5 17.238 2.5 12Z"/>
</symbol>
<symbol id="heart-outline" viewBox="0 0 24 24"><path fill="currentColor" fill-rule="evenodd" d="m19.982 8.624-.006-.07C19.766 6.314 18.218 5 16.554 5a3.416 3.416 0 0 0-2.907 1.622l-.86 1.394a1 1 0 0 1-1.708-.009l-.846-1.402C9.615 5.582 8.589 5 7.446 5 5.782 5 4.235 6.315 4.025 8.554l-.007.072-.01.06c-.005.045-.048.483.138 1.247.312 1.276 1.038 2.471 2.145 3.443l5.66 4.972 5.763-4.976c1.105-.972 1.829-2.165 2.14-3.439.185-.76.144-1.2.138-1.249l-.01-.06Zm.01.055v.003-.003Zm-.964 6.2-6.429 5.552a1 1 0 0 1-1.313-.006L4.972 14.88c-1.396-1.224-2.354-2.771-2.769-4.472-.287-1.18-.193-1.903-.17-2.04C2.325 5.257 4.6 3 7.446 3a5.16 5.16 0 0 1 3.122 1.038c.541.407 1.01.924 1.377 1.533a5.412 5.412 0 0 1 4.61-2.57c2.846 0 5.12 2.256 5.412 5.366.023.138.117.86-.17 2.04-.415 1.7-1.373 3.248-2.77 4.473Z" clip-rule="evenodd"/>
</symbol>
<symbol id="heart" viewBox="0 0 24 24"><path fill="currentColor" d="M21.967 8.367C21.675 5.257 19.4 3 16.554 3a5.416 5.416 0 0 0-4.61 2.571C10.978 3.968 9.313 3 7.447 3 4.6 3 2.325 5.257 2.033 8.367c-.023.137-.117.86.17 2.04.415 1.7 1.373 3.248 2.77 4.472l6.313 5.546a1 1 0 0 0 1.313.006l6.429-5.551c1.396-1.226 2.354-2.772 2.769-4.473.287-1.18.193-1.902.17-2.04Z"/>
</symbol>
<symbol id="history" viewBox="0 0 24 24"><path fill="currentColor" fill-rule="evenodd" d="M3.621 5.42a.971.971 0 0 1 .327-.552c.587-.454 1.389-.076 1.468.696.015.13.04.232.055.224.015-.008.135-.123.273-.261A8.612 8.612 0 0 1 7.82 4.04a8.86 8.86 0 0 1 6.882-.617 8.86 8.86 0 0 1 4.224 2.825 9.007 9.007 0 0 1 .312 11.101 9.027 9.027 0 0 1-5.86 3.545 8.863 8.863 0 0 1-4.074-.318 8.86 8.86 0 0 1-5.288-4.446 8.389 8.389 0 0 1-.895-2.685c-.025-.15-.047-.27-.065-.368-.058-.313-.076-.412-.03-.62.147-.643.954-.912 1.463-.482.166.14.257.481.314 1.04.17.845.184.88.439 1.481l.147.351c.84 2.014 2.775 3.652 4.893 4.143 3.194.749 6.409-.646 7.995-3.458a7.21 7.21 0 0 0-2.755-9.813c-2.571-1.445-5.777-1.164-8.084.71-.177.145-.376.32-.445.389l-.119.128.23-.034c.47-.064.823.1 1.016.47a.9.9 0 0 1-.381 1.223c-.105.054-2.579.378-2.934.382-.374.004-.76-.28-.849-.624-.072-.277-.356-2.785-.335-2.944Zm7.013 2.705a.959.959 0 0 1 .46-.444.887.887 0 0 1 1.165.435c.077.148.081.266.081 1.976v1.815h1.406c.895 0 1.46.017 1.57.047.258.071.545.384.608.658.097.397-.101.81-.477 1.018-.118.063-.35.071-2.094.084-2.132.013-2.2.008-2.47-.215-.06-.05-.11-.088-.15-.134-.172-.198-.166-.55-.166-2.716 0-2.094.008-2.398.067-2.524Z" clip-rule="evenodd"/>
</symbol>
<symbol id="hot" viewBox="0 0 24 24"><path fill="currentColor" d="M16.561 5.308c-.996.845-.688 2.854-1.284 2.905-.596.062-1.222-1.422-1.397-2.349-.175-.927-.637-2.308-3.103-3.864.596 3.41-1.736 3.771-1.736 7.048-.42-1.01-1.458-1.72-2.876-2.123 1.038 2.453-1.603 3.514-1.664 7.553C4.439 18.518 7.86 22 12 22s7.448-3.266 7.5-7.522c.06-4.245-2.939-7.893-2.939-9.17Z"/>
</symbol>
<symbol id="info" viewBox="0 0 24 24"><path fill="currentColor" fill-rule="evenodd" d="M22 12c0 5.523-4.477 10-10 10S2 17.523 2 12 6.477 2 12 2s10 4.477 10 10Zm-9-5a1 1 0 1 1-2 0 1 1 0 0 1 2 0Zm-1 2a1 1 0 0 0-1 1v7a1 1 0 1 0 2 0v-7a1 1 0 0 0-1-1Z" clip-rule="evenodd"/>
</symbol>
<symbol id="ios" viewBox="0 0 24 24"><path fill="currentColor" d="M12 0C5.37 0 0 5.37 0 12s5.37 12 12 12 12-5.37 12-12S18.63 0 12 0Zm2.95 3.915c.192 1.77-1.384 3.61-3.031 3.488-.204-1.545 1.25-3.417 3.03-3.488Zm-.214 15.102c-1.017.02-1.333-.6-2.492-.6-1.16 0-1.515.58-2.481.62-1.617.061-3.977-3.67-3.977-6.925 0-2.99 1.943-4.475 3.763-4.505.976-.02 1.902.66 2.492.66.6 0 1.718-.813 2.898-.69.488.02 1.871.203 2.766 1.494-2.36 1.536-2.135 4.76.397 5.94-.499 1.433-1.841 3.975-3.366 4.006Z"/>
</symbol>
<symbol id="linux" viewBox="0 0 24 24"><path fill="currentColor" fill-rule="evenodd" d="M12 0C5.37 0 0 5.37 0 12s5.37 12 12 12 12-5.37 12-12S18.63 0 12 0ZM8.049 19.321c-.45-.164-.906-.33-1.335-.382-.847-.1-1.715-.273-1.542-.844.032-.105.063-.2.092-.286.127-.383.204-.617.082-.981-.15-.448-.15-.847.47-.975.625-.12.971-.297 1.145-.667.177-.374.4-.45.4-.45s-.223-.52.097-1.091c.143-.25.285-.657.436-1.09.197-.562.41-1.17.661-1.55.216-.323.485-.677.716-.981.248-.326.452-.596.502-.71.097-.217.124-.82.074-1.664-.007-.11-.018-.234-.03-.37-.08-.92-.207-2.359.704-2.987 1.044-.72 2.982-.82 3.73.87.362.819.385 1.55.406 2.218.022.71.042 1.347.465 1.937.82 1.14 1.888 2.659 2.212 3.602.323.948-.024 2.093-.024 2.093s.397.347.374.867c-.027.524.32.797.744.97.424.174.547.745-.127 1.119-.117.065-.25.137-.393.214-.672.364-1.55.839-1.92 1.23-.446.47-1.143.447-1.467.27-.324-.173-.497-.57-.497-.57s-.894-.223-1.839-.197c-.944.023-1.841.224-1.841.224s-.247.644-1.045.543c-.39-.047-.817-.203-1.25-.362Zm8.71-3.254c-.193.194-.83.463-1.274.27-.444-.193-.367-.927-.367-.927s-.154-.037-.25.04c-.073.057-.048.367-.022.682.008.103.017.207.022.302.02.387-.097 1.064-.234 1.682-.133.62.137 1.043.447 1.14.307.097.811-.233 1.195-.637.231-.244.788-.528 1.248-.763.308-.157.573-.293.667-.378.218-.203-.169-.405-.457-.556l-.047-.024c-.29-.154-.444-.597-.423-.908.02-.307-.174-.403-.174-.403s-.137.287-.33.48ZM13.38 6.829c0-.521-.344-.945-.771-.945-.427 0-.77.424-.77.945 0 .153.03.296.08.423.096.037.217.083.35.137a.66.66 0 0 1-.07-.297c0-.293.184-.534.404-.534.226 0 .406.24.406.534 0 .224-.106.418-.26.494l.1.042.104.045c.254-.154.427-.474.427-.844Zm-1.095.943c-.256-.103-.586-.234-.733-.26-.214-.04-.568.26-.704.388-.137.123-.45.363-.45.363-.101.173.3.5.513.64l.106.071c.151.103.257.175.42.153.188-.024.745-.362 1.052-.548l.063-.039c.09-.054.164-.092.222-.123.13-.067.187-.097.206-.194.023-.137-.214-.274-.428-.347a8.427 8.427 0 0 1-.266-.104Zm-1.044-.843c0-.494-.274-.894-.61-.894-.338 0-.607.397-.607.894 0 .4.18.74.423.854.084-.06.164-.133.25-.217l-.013.005-.017.005c-.18.03-.357-.167-.403-.44-.043-.27.063-.515.24-.545.177-.026.357.171.404.438a.648.648 0 0 1-.05.393c.027-.027.057-.052.089-.079l.02-.017a.687.687 0 0 1 .248-.14c.016-.084.026-.168.026-.257Zm-2.056 4.529c-.133.39-.268.784-.429 1.039-.351.547-.574 1.641-.3 2.289.134.319.57.655.988.977.43.332.84.647.877.911.073.524-.448.6-.448.6l.67.768s.599.127 1.793-.047c1.194-.176 1.965-1.244 1.965-1.244s0-1.268.073-1.619c.074-.346.644-.196.644-.196s.25-.798.1-1.841c-.15-1.045-1.641-4.325-1.815-4.475-.097-.084-.51.155-.947.407-.338.195-.69.398-.918.464-.52.147-1.268-.747-1.268-.747.123.373-.146 1.218-.497 1.614-.185.212-.335.652-.488 1.1Zm-2.772 4.68c-.289.062-.574.124-.61.276-.029.122-.003.24.025.372.03.144.065.303.035.502a2.82 2.82 0 0 1-.101.38c-.077.24-.145.455-.039.574.082.093.457.154.863.22.367.059.759.122.985.218l.066.027c.502.21 1.479.62 1.84.51 0 0 .42-.26.496-.618.08-.357-.177-.754-.457-1.054-.202-.217-.618-.913-.896-1.379-.103-.172-.187-.313-.235-.386-.18-.28-.617-.777-.854-.637-.114.065-.188.216-.265.377-.086.176-.176.363-.332.457-.121.074-.322.117-.521.16Z" clip-rule="evenodd"/>
</symbol>
<symbol id="live-casino" viewBox="0 0 24 24"><path fill="currentColor" fill-rule="evenodd" d="M12 4.202c.668-.645 2.663-1.531 3.568-1.691 1.498-.265 1.674 4.405 0 4.317-1.136-.06-2.941-1.178-3.568-1.907-.627.73-2.432 1.847-3.568 1.907-1.674.088-1.498-4.582 0-4.317.905.16 2.9 1.046 3.568 1.69Zm8.997 1.921L22 20.484c0 .323-.07.97-.352.97h-7.225c-.353-.147-.97-.635-.617-1.41.353-.776 3.084-9.604 4.406-13.92.704-1.234 2.785-1.146 2.785 0Zm-17.995 0L2 20.484c0 .323.07.97.352.97h7.225c.353-.147.97-.635.617-1.41-.353-.776-3.084-9.604-4.405-13.92-.705-1.234-2.787-1.146-2.787 0Z" clip-rule="evenodd"/>
</symbol>
<symbol id="live-support" viewBox="0 0 24 24"><path fill="currentColor" fill-rule="evenodd" d="M5.103 7.58a7.716 7.716 0 0 1 6.05-4.34 8.367 8.367 0 0 1 2.407.117c2.234.457 4.261 2.043 5.254 4.106l.199.418.691.003c.379 0 .785.02.899.043.656.141 1.214.7 1.355 1.356.059.277.059 2.781 0 3.062a1.806 1.806 0 0 1-1.328 1.356c-.094.023-.496.043-.895.043h-.722l-.203.422a8.29 8.29 0 0 1-.512.89c-1.059 1.575-2.57 2.645-4.488 3.164-.04.008-.051.141-.051.48 0 .782-.125 1.15-.524 1.552-.703.699-1.765.699-2.468 0a1.658 1.658 0 0 1-.493-.957c-.109-.649.192-1.36.735-1.72.336-.222.566-.28 1.21-.32.321-.015.763-.066.977-.109 2.762-.539 4.824-2.738 5.192-5.539.355-2.71-1.07-5.348-3.555-6.574a6.132 6.132 0 0 0-2.543-.652 6.42 6.42 0 0 0-4.797 1.843c-1.59 1.574-2.238 3.723-1.797 5.938.035.172.149.586.254.922.106.336.192.62.192.636 0 .012-.586.024-1.297.024-1.383 0-1.512-.016-1.895-.2a2.084 2.084 0 0 1-.426-.324 1.695 1.695 0 0 1-.48-.875c-.059-.277-.059-2.78 0-3.062a1.805 1.805 0 0 1 1.355-1.356c.114-.023.512-.043.883-.043h.68l.14-.304Zm3.078-.383a5.334 5.334 0 0 1 3.168-1.617c.425-.055 1.316-.012 1.726.078 1.078.242 1.856.664 2.621 1.426.801.797 1.246 1.625 1.489 2.757.093.454.097 1.489 0 1.95a5.408 5.408 0 0 1-2.055 3.265c-.559.418-1.29.75-2.055.926-.336.078-.48.082-3.347.094l-3 .015v-1.164l.175-.023c.352-.05.696-.297.856-.617l.097-.196-.214-.312c-1.387-2.043-1.16-4.809.539-6.582Zm2.062 4.203v-1.172H9.071V11.4h1.172Zm2.344 0v-1.172h-1.172V11.4h1.172Zm2.344 0v-1.172h-1.172V11.4h1.172Z" clip-rule="evenodd"/>
</symbol>
<symbol id="location" viewBox="0 0 24 24"><path fill="currentColor" fill-rule="evenodd" d="M12 22s8-5.582 8-12a8 8 0 1 0-16 0c0 6.418 8 12 8 12Zm0-7a5 5 0 1 0 0-10 5 5 0 0 0 0 10Z" clip-rule="evenodd"/>
</symbol>
<symbol id="locked" viewBox="0 0 24 24"><path fill="currentColor" fill-rule="evenodd" d="M16 8v2H8V8a4 4 0 1 1 8 0ZM6 10V8a6 6 0 1 1 12 0v2a2 2 0 0 1 2 2v8a2 2 0 0 1-2 2H6a2 2 0 0 1-2-2v-8a2 2 0 0 1 2-2Zm6.969 6.75a2 2 0 1 0-1.938 0c-.02.08-.031.164-.031.25v1a1 1 0 1 0 2 0v-1c0-.086-.01-.17-.031-.25Z" clip-rule="evenodd"/>
</symbol>
<symbol id="log-out" viewBox="0 0 24 24"><path fill="currentColor" d="M4.005 2.898A1 1 0 0 1 5 2h10a1 1 0 1 1 0 2H6v16h9a1 1 0 1 1 0 2H5a1 1 0 0 1-1-1V3c0-.035.002-.069.005-.102Z"/><path fill="currentColor" d="M8 12a1 1 0 0 1 1-1h10a1 1 0 1 1 0 2H9a1 1 0 0 1-1-1Z"/><path fill="currentColor" fill-rule="evenodd" d="M13.293 6.293a1 1 0 0 1 1.414 0l5 5a1 1 0 0 1 0 1.414l-5 5a1 1 0 0 1-1.414-1.414L17.586 12l-4.293-4.293a1 1 0 0 1 0-1.414Z" clip-rule="evenodd"/>
</symbol>
<symbol id="lottery" viewBox="0 0 24 24"><path fill="currentColor" fill-rule="evenodd" d="M5.225 3.307c.161-.142.345-.222.527-.217.111.004.52.18 1.91.825l1.774.827-.02.104c-.06.299.192.67.513.764.207.063.515-.01.685-.163l.11-.104 5.001 2.333c3.45 1.61 7.017 3.288 7.08 3.355a.74.74 0 0 1 .195.535c0 .17-.053.306-.547 1.365-.454.974-.571 1.194-.674 1.292-.183.16-.34.214-.672.216a1.829 1.829 0 0 0-1.704 1.293 1.853 1.853 0 0 0 .314 1.616c.226.294.307.506.284.727-.013.098-.204.548-.564 1.32-.49 1.051-.56 1.18-.69 1.289a.74.74 0 0 1-.535.194c-.093-.005-3.671-1.66-7.12-3.27L6.09 15.275l.01-.151c.007-.228-.135-.512-.316-.63-.277-.185-.724-.139-.915.098l-.067.082-1.757-.82c-1.153-.537-1.79-.853-1.85-.915A.74.74 0 0 1 1 12.405c0-.17.053-.306.544-1.358.36-.772.582-1.207.649-1.28.152-.155.369-.234.696-.247.815-.025 1.52-.556 1.723-1.293.153-.58.034-1.156-.344-1.653-.13-.171-.217-.285-.252-.414-.07-.262.08-.584.54-1.569.45-.966.567-1.186.67-1.284Zm4.373 4.308a.907.907 0 0 0-.242-.544c-.142-.132-.198-.153-.41-.176a.645.645 0 0 0-.544.175c-.126.107-.195.226-.517.917-.323.69-.369.82-.37.985-.002.226.046.347.21.523.232.26.668.278.974.048.15-.12.908-1.735.9-1.928Zm-1.971 3.79a.854.854 0 0 0-.172-.26c-.141-.132-.198-.153-.409-.176a.645.645 0 0 0-.545.175c-.125.107-.195.226-.517.916-.322.691-.368.82-.37.985-.001.226.046.348.208.527.229.249.638.284.93.07.136-.097.178-.167.55-.962.434-.931.448-.982.325-1.275Z" clip-rule="evenodd"/>
</symbol>
<symbol id="macos" viewBox="0 0 24 24"><path fill="currentColor" d="M11.153 14.57c0 2.018-1.052 3.289-2.732 3.289-1.68 0-2.732-1.278-2.732-3.29 0-2.026 1.052-3.296 2.732-3.296 1.68 0 2.732 1.27 2.732 3.296Zm2.343-7.123-.734.05c-.416.028-.6.176-.6.444 0 .283.233.438.558.438.445 0 .776-.29.776-.678v-.254ZM24 12c0 6.699-5.301 12-12 12S0 18.699 0 12 5.301 0 12 0s12 5.301 12 12Zm-9.219-4.701c0 .974.537 1.567 1.412 1.567.741 0 1.207-.417 1.285-1.01h-.58c-.077.325-.33.502-.705.502-.494 0-.798-.403-.798-1.06 0-.649.304-1.037.798-1.037.395 0 .642.226.706.515h.579c-.078-.578-.53-1.016-1.285-1.016-.875-.007-1.412.586-1.412 1.539ZM6.713 5.816V8.81h.593V6.974c0-.388.275-.699.635-.699.353 0 .579.212.579.55V8.81h.579V6.918c0-.36.247-.643.635-.643s.579.198.579.614v1.92h.593V6.741c0-.621-.353-.988-.96-.988-.417 0-.762.212-.91.536h-.05c-.134-.324-.417-.536-.826-.536-.402 0-.706.198-.833.536h-.042v-.48l-.572.007Zm5.492 8.753c0-2.604-1.454-4.242-3.784-4.242s-3.783 1.638-3.783 4.242c0 2.605 1.454 4.236 3.783 4.236 2.33 0 3.784-1.638 3.784-4.236Zm.367-5.71c.395 0 .72-.17.903-.473h.05v.423h.572V6.762c0-.628-.424-1.002-1.18-1.002-.684 0-1.164.332-1.228.833h.572c.064-.219.297-.339.628-.339.403 0 .615.184.615.515v.262l-.812.049c-.713.042-1.116.353-1.116.896-.007.537.417.883.996.883Zm6.473 7.475c0-1.165-.678-1.842-2.386-2.216l-.91-.198c-1.123-.247-1.56-.692-1.56-1.334 0-.833.79-1.334 1.813-1.334 1.073 0 1.78.55 1.87 1.454h1.024c-.049-1.39-1.228-2.372-2.865-2.372-1.702 0-2.894.953-2.894 2.301 0 1.165.712 1.913 2.357 2.273l.91.198c1.137.247 1.596.706 1.596 1.39 0 .805-.812 1.391-1.92 1.391-1.179 0-1.998-.536-2.118-1.419H12.94c.099 1.42 1.292 2.337 3.084 2.337 1.829 0 3.022-.953 3.022-2.47Z"/>
</symbol>
<symbol id="male" viewBox="0 0 24 24"><path fill="currentColor" d="M14.793 2.034a1.1 1.1 0 0 0-.73.562c-.071.13-.092.244-.092.483 0 .37.092.576.34.798.319.277.277.273 2.236.286l1.783.012-1.963 1.966-1.968 1.97-.382-.252A7.874 7.874 0 0 0 7.22 6.96c-2.854.958-4.855 3.477-5.19 6.539-.06.533-.026 1.554.066 2.075.29 1.65.995 3.011 2.161 4.179 1.17 1.171 2.522 1.868 4.196 2.167.537.096 1.888.109 2.413.02 1.8-.29 3.377-1.13 4.582-2.44 1.653-1.801 2.354-4.397 1.842-6.824a7.859 7.859 0 0 0-1.129-2.671l-.273-.403 1.968-1.97 1.964-1.966.012 1.806c.013 1.987.009 1.94.286 2.26.495.563 1.43.428 1.77-.26l.097-.198.012-3.125c.009-2.116-.004-3.196-.033-3.343a.95.95 0 0 0-.537-.68l-.24-.118L18.084 2c-1.708 0-3.19.013-3.29.034Zm-4.2 6.694c.864.13 1.745.487 2.442.987.44.315 1.066.953 1.368 1.399 1.498 2.183 1.233 5.203-.617 7.085a5.533 5.533 0 0 1-4.032 1.692 5.52 5.52 0 0 1-3.126-.94c-.44-.29-1.246-1.097-1.527-1.53-.647-.99-.944-1.99-.94-3.17.004-.937.189-1.71.612-2.537.79-1.545 2.35-2.696 4.016-2.965.172-.025.344-.055.377-.063.193-.038 1.083-.013 1.427.042Z"/>
</symbol>
<symbol id="menu-open" viewBox="0 0 24 24"><path fill="currentColor" d="M14.25 6.105c0-.61-.495-1.105-1.105-1.105H3.105a1.105 1.105 0 1 0 0 2.21h10.04c.61 0 1.105-.494 1.105-1.105Zm4.794 4.966a1.1 1.1 0 0 0-.6-.176H5.106a1.105 1.105 0 1 0 0 2.21h13.34a1.1 1.1 0 0 0 .571-.159l-1.55 2.316-.119.176c-.464.682-1.024 1.505-.467 2.062l.07.073a.479.479 0 0 0 .061.05c.315.22.758.206 1.076-.01.06-.041.1-.093.143-.151l3.28-4.574c.044-.063.095-.126.145-.188.171-.214.346-.432.345-.698 0-.264-.171-.481-.341-.695a4.402 4.402 0 0 1-.147-.192l-3.351-4.74a.545.545 0 0 0-.144-.15c-.284-.182-.654-.158-.943.016a.85.85 0 0 0-.151.109l-.098.1a.938.938 0 0 0-.079 1.091c.026.04.053.08.081.118.025.033.049.067.071.101l2.146 3.311Zm.493.76.111.171-.11.166a1.115 1.115 0 0 0 0-.336Zm-6.392 4.959a1.105 1.105 0 1 1 0 2.21H3.105a1.105 1.105 0 1 1 0-2.21h10.04Z"/>
</symbol>
<symbol id="menu" viewBox="0 0 24 24"><path fill="currentColor" d="M3 5h18v2.211H3zm0 5.895h15v2.211H3zm0 5.895h18v2.211H3z"/>
</symbol>
<symbol id="mobile" viewBox="0 0 24 24"><path fill="currentColor" d="M8.163 2.063c-.746.18-1.387.792-1.578 1.519-.043.16-.055 1.672-.055 8.418 0 5.504.016 8.281.043 8.398.168.739.894 1.422 1.652 1.559.157.027 1.414.043 3.77.043 3.887 0 3.848 0 4.332-.238.312-.153.726-.563.894-.88.262-.491.247.102.247-8.921 0-8.848.011-8.383-.2-8.8a2.283 2.283 0 0 0-.941-.934c-.453-.23-.395-.227-4.336-.223-2.93.004-3.649.012-3.828.058Zm2.027 1.226c.121.043.207.176.207.316 0 .122-.172.27-.312.27s-.313-.148-.313-.27c0-.132.086-.273.192-.312.054-.02.101-.04.105-.04.004-.003.059.017.121.036Zm3.004.05a.261.261 0 0 1 .105.224.261.261 0 0 1-.105.222c-.105.09-.11.09-1.172.09-1.02 0-1.07-.004-1.172-.082-.078-.063-.101-.113-.101-.23 0-.118.023-.168.101-.231.102-.078.153-.082 1.172-.082 1.063 0 1.067 0 1.172.09Zm3.336 8.583v6.953H7.624V4.969h8.906v6.953Zm-4.2 7.676c.34.14.544.453.544.84 0 .566-.457.984-1.012.925a.793.793 0 0 1-.559-.265c-.191-.196-.261-.375-.261-.66.004-.485.27-.793.781-.91.105-.028.363.007.508.07Z"/>
</symbol>
<symbol id="money-bitcoin" viewBox="0 0 24 24"><path fill="currentColor" fill-rule="evenodd" d="M9.58 21.703c5.358 1.336 10.785-1.925 12.12-7.282 1.336-5.358-1.924-10.786-7.282-12.122C9.061.964 3.635 4.224 2.3 9.583.963 14.94 4.224 20.367 9.58 21.703Zm4.63-13.65c1.385.477 2.398 1.193 2.2 2.523-.145.974-.685 1.446-1.402 1.611.985.513 1.486 1.299 1.009 2.662-.593 1.692-2 1.835-3.87 1.48l-.455 1.82-1.097-.273.448-1.795a45.997 45.997 0 0 1-.874-.227l-.45 1.804-1.096-.274.454-1.823a64.858 64.858 0 0 1-.31-.08c-.155-.04-.313-.082-.472-.122l-1.428-.356.544-1.256s.809.215.798.2c.31.076.448-.127.503-.262l.717-2.876a6.162 6.162 0 0 1 .116.028.925.925 0 0 0-.114-.036l.512-2.054c.014-.233-.067-.527-.511-.638.017-.012-.797-.198-.797-.198l.292-1.172 1.513.378-.001.005c.227.057.462.11.7.165l.45-1.802 1.097.273-.44 1.767c.294.067.59.135.878.207l.438-1.755 1.097.273-.45 1.803Zm-3.471 6.536c.895.236 2.852.753 3.163-.497.32-1.278-1.579-1.704-2.505-1.912a12.811 12.811 0 0 1-.27-.062l-.602 2.415.214.056Zm.844-3.53c.747.2 2.375.634 2.659-.502.29-1.163-1.293-1.513-2.066-1.684a9.352 9.352 0 0 1-.226-.052l-.547 2.191.18.047Z" clip-rule="evenodd"/>
</symbol>
<symbol id="more-menu" viewBox="0 0 24 24"><path fill="currentColor" fill-rule="evenodd" d="M4 6a2 2 0 1 1 4 0 2 2 0 0 1-4 0Zm6 0a2 2 0 1 1 4 0 2 2 0 0 1-4 0Zm8-2a2 2 0 1 0 0 4 2 2 0 0 0 0-4ZM4 12a2 2 0 1 1 4 0 2 2 0 0 1-4 0Zm8-2a2 2 0 1 0 0 4 2 2 0 0 0 0-4Zm4 2a2 2 0 1 1 4 0 2 2 0 0 1-4 0ZM6 16a2 2 0 1 0 0 4 2 2 0 0 0 0-4Zm4 2a2 2 0 1 1 4 0 2 2 0 0 1-4 0Zm8-2a2 2 0 1 0 0 4 2 2 0 0 0 0-4Z" clip-rule="evenodd"/>
</symbol>
<symbol id="new" viewBox="0 0 24 24"><path fill="currentColor" fill-rule="evenodd" d="M4 2a2 2 0 0 0-2 2v5a2 2 0 0 0 2 2h5a2 2 0 0 0 2-2V4a2 2 0 0 0-2-2H4Zm13.5.25c.384 0 .694.31.694.694v2.862h2.862a.694.694 0 0 1 0 1.389h-2.862v2.86a.694.694 0 0 1-1.388 0v-2.86h-2.862a.694.694 0 0 1 0-1.39h2.862v-2.86c0-.384.31-.695.694-.695ZM2 15a2 2 0 0 1 2-2h5a2 2 0 0 1 2 2v5a2 2 0 0 1-2 2H4a2 2 0 0 1-2-2v-5Zm13-2a2 2 0 0 0-2 2v5a2 2 0 0 0 2 2h5a2 2 0 0 0 2-2v-5a2 2 0 0 0-2-2h-5Z" clip-rule="evenodd"/>
</symbol>
<symbol id="notification" viewBox="0 0 24 24"><path fill="currentColor" fill-rule="evenodd" d="M12 2.5c-.552 0-1 .398-1 .889v1.185c-3.392.51-6 3.573-6 7.276v3.65a1 1 0 1 0 0 2h14a1 1 0 1 0 0-2v-3.65c0-3.703-2.608-6.766-6-7.276V3.39c0-.491-.448-.889-1-.889Zm3 16a3 3 0 1 1-6 0h6Z" clip-rule="evenodd"/>
</symbol>
<symbol id="play" viewBox="0 0 24 24"><path fill="currentColor" d="M18.692 11.159a1 1 0 0 1 0 1.682L7.54 20.01A1 1 0 0 1 6 19.168V4.832a1 1 0 0 1 1.54-.841l11.152 7.168Z"/>
</symbol>
<symbol id="plus-fill" viewBox="0 0 24 24"><path fill="currentColor" d="M12 1C5.925 1 1 5.925 1 12s4.925 11 11 11 11-4.925 11-11S18.075 1 12 1Zm6.016 11.628a.785.785 0 0 1-.785.784h-3.819v3.819a.785.785 0 0 1-.784.785h-1.256a.785.785 0 0 1-.784-.785v-3.819H6.769a.785.785 0 0 1-.785-.784v-1.256a.785.785 0 0 1 .785-.784h3.819V6.769a.785.785 0 0 1 .784-.785h1.256a.785.785 0 0 1 .784.785v3.819h3.819a.785.785 0 0 1 .785.784v1.256Z"/>
</symbol>
<symbol id="plus" viewBox="0 0 24 24"><path fill="currentColor" d="M13 13v7a1 1 0 1 1-2 0v-7H4a1 1 0 1 1 0-2h7V4a1 1 0 1 1 2 0v7h7a1 1 0 1 1 0 2h-7Z"/>
</symbol>
<symbol id="provably-fair" viewBox="0 0 24 24"><path fill="currentColor" fill-rule="evenodd" d="M11.735 2.052c-.24.121-.302.258-.314.711 0 .032-.002.061-.003.088-.004.166-.007.249-.05.294-.042.045-.125.053-.292.067l-.094.009c-.428.039-1.189.207-1.675.367-.683.223-1.094.414-2.044.934C5.66 5.41 4.384 6 3.02 6.488c-.376.133-.741.285-.812.336-.317.23-.25.79.122.966.157.074.498.082 1.365.023 1.283-.086 2.216-.246 3.797-.641 1.989-.496 3.62-.676 5.334-.578 1.413.082 2.232.21 3.844.613 1.507.375 2.373.52 3.64.606.867.059 1.209.05 1.365-.023.373-.176.44-.735.122-.966-.07-.05-.365-.176-.655-.281-1.49-.528-2.73-1.095-4.362-1.997a25.58 25.58 0 0 0-1.118-.59c-.733-.34-1.898-.665-2.64-.735l-.085-.008c-.184-.016-.27-.024-.311-.071-.037-.042-.036-.116-.035-.256v-.08c0-.406-.059-.574-.247-.707a.669.669 0 0 0-.608-.047Zm-.322 11.056v5.374h1.177V7.735h-1.177v5.373ZM6.294 8.677c.012-.012.255-.078.542-.145l.24-.056.317-.073c.023 0 .49 1.012 1.04 2.255l1 2.255.196.02c.266.031.435.129.53.313.191.379-.013 1.27-.428 1.864-1.471 2.087-4.939 2.333-6.826.48a3.026 3.026 0 0 1-.85-1.524c-.154-.711.015-1.075.525-1.13l.22-.023.886-1.993.887-1.993.596-.082c.33-.047.635-.094.678-.106.04-.011.075-.004.075.012 0 .02-.412.965-.918 2.099l-.918 2.063 1.016.012c.561.004 1.471.004 2.032 0l1.012-.012-.934-2.106c-.517-1.16-.93-2.118-.917-2.13Zm9.277 1.977-1.004 2.26-.216.023c-.51.054-.667.379-.53 1.098.185.957.895 1.813 1.927 2.33.298.148.894.335 1.274.402.42.074 1.393.066 1.813-.016 1.223-.242 2.216-.887 2.773-1.802.317-.523.486-1.367.337-1.676-.094-.204-.259-.309-.521-.336l-.22-.024-.887-1.993-.886-1.993-.596-.082c-.33-.047-.636-.094-.679-.106-.04-.012-.075-.004-.075.012 0 .02.412.965.918 2.099l.918 2.063-1.016.012c-.56.004-1.47.004-2.032 0l-1.011-.012.937-2.106c.514-1.161.922-2.123.906-2.134a4.021 4.021 0 0 0-.502-.133 30 30 0 0 1-.55-.121c-.07-.02-.184.218-1.078 2.235ZM8.41 20.18c.25-.25.502-.391.827-.47.247-.058 5.158-.073 5.468-.015.78.149 1.416.91 1.416 1.704a.618.618 0 0 1-.314.524c-.149.078-.223.078-3.804.078-3.582 0-3.656 0-3.805-.078-.494-.25-.38-1.15.212-1.743Z" clip-rule="evenodd"/>
</symbol>
<symbol id="providers" viewBox="0 0 24 24"><path fill="currentColor" fill-rule="evenodd" d="M4.778 2h14.445a.556.556 0 0 1 0 1.111H4.778a.556.556 0 0 1 0-1.111Zm15.11 2.222H4.108a1 1 0 0 0-1 1v.223a1 1 0 0 0 1 1h15.778a1 1 0 0 0 1-1v-.223a1 1 0 0 0-1-1ZM4 7.556a2 2 0 0 0-2 2v10.156C2 21.412 3.62 22 4.288 22h15.424C20.38 22 22 21.412 22 19.712V9.556a2 2 0 0 0-2-2H4Zm11.333 5.555H8.667c-.667 0-1.111-.444-1.111-1.111s.444-1.111 1.11-1.111h6.667c.667 0 1.111.444 1.111 1.111s-.444 1.111-1.11 1.111Z" clip-rule="evenodd"/>
</symbol>
<symbol id="quest" viewBox="0 0 24 24"><path fill="currentColor" fill-rule="evenodd" d="m8.797 4.046 3.195-.961a613.31 613.31 0 0 1 3.203-.965c.004-.004.008.777.008 1.73v1.73l-.281.028a4.634 4.634 0 0 0-.629.11c-.273.066-.363.105-.441.195-.13.156-.122.32.02.465.136.133.171.137.554.039.16-.04.398-.086.535-.102l.242-.027v13.664l-2.762.828-1.615.485-.007.002-.01.003-1.57.471-.442.133v-3.105l.238-.028c.192-.023.266-.05.352-.14.156-.153.152-.32-.008-.477-.113-.113-.129-.117-.352-.098l-.23.028V4.046Zm4.45 3.039c.21-.25.233-.422.081-.574-.113-.11-.258-.149-.375-.102-.129.055-.515.508-.625.73-.113.235-.098.368.05.485.11.086.286.101.407.039a.776.776 0 0 0 .18-.207 3.58 3.58 0 0 1 .281-.371Zm-.825 2.195c.07-.527.062-.629-.05-.738a.307.307 0 0 0-.247-.098c-.234 0-.32.121-.383.535-.082.532-.074.625.059.758.152.149.324.153.469.004.093-.09.113-.16.152-.46Zm-.113 1.461a.417.417 0 0 0-.172-.133 3.138 3.138 0 0 1-.046-.018.252.252 0 0 0-.095-.03c-.027 0-.053.013-.11.038l-.03.014a.357.357 0 0 0-.165.133c-.023.043-.043.285-.043.55 0 .473 0 .477.114.59.078.079.152.114.238.114s.16-.035.238-.113c.114-.114.114-.118.114-.59 0-.266-.02-.508-.043-.555Zm.015 2.766c.043-.512.012-.653-.172-.746-.125-.067-.171-.07-.296-.02-.172.07-.22.207-.239.719l-.02.476.133.11c.106.09.153.105.266.086.242-.04.285-.121.328-.625Zm-.304 2.187c.14-.555.125-.668-.098-.785-.149-.074-.188-.074-.34.02-.09.054-.137.12-.168.242l-.03.118c-.026.102-.06.235-.087.347-.094.347-.059.511.121.601.16.086.254.074.387-.05.097-.087.136-.18.215-.493Zm-.743 1.656c.028-.128-.058-.328-.171-.39-.106-.055-.29-.05-.364.008a6.562 6.562 0 0 0-.316.332c-.215.234-.262.304-.262.414 0 .273.266.445.5.324.164-.086.586-.555.613-.688Zm4.668-11.765V3.87c0-1.02.016-1.715.035-1.715.02 0 1.344.414 2.942.918 2.45.774 2.918.93 2.992 1.016L22 4.19v17.293l-.102.121c-.074.09-.132.122-.226.122-.07 0-1.379-.395-2.91-.88a330.028 330.028 0 0 0-2.801-.878c-.008 0-.016-3.078-.016-6.836V6.296l.09.015c.367.079.54.122.703.184.258.102.367.094.5-.039.13-.133.149-.29.051-.43-.11-.156-.629-.34-1.156-.418l-.188-.023Zm2.93 2.152c0-.203-.469-.945-.664-1.05a.34.34 0 0 0-.508.304c0 .117.035.2.149.344.082.105.207.289.28.406.161.266.216.309.403.313.192 0 .34-.137.34-.317Zm.586 1.86c-.027-.223-.055-.29-.137-.36a.396.396 0 0 0-.422-.047c-.14.082-.175.23-.14.582.015.184.031.391.031.461.004.184.152.32.344.32.34-.003.418-.238.324-.956Zm.039 2.41c0-.45-.004-.477-.102-.59a.332.332 0 0 0-.503-.024c-.094.09-.098.114-.098.606s.004.515.098.605c.136.141.343.133.492-.015.113-.114.113-.117.113-.582Zm0 1.984c0-.281-.04-.41-.152-.496-.11-.086-.348-.063-.453.047-.09.086-.098.125-.098.426 0 .32.004.332.121.43.16.136.324.132.469-.012.105-.106.113-.137.113-.395Zm-.95.832c-.323-.324-.632-.61-.679-.633-.187-.093-.363-.035-.465.157-.105.207-.05.293.61.953l.625.625-.633.633-.002.001c-.611.616-.635.64-.635.795 0 .207.149.348.36.348.132 0 .19-.047.78-.633l.637-.633.637.633c.578.575.652.633.774.633.261 0 .425-.21.347-.445-.023-.075-.273-.356-.644-.727l-.606-.601.625-.63c.598-.6.625-.636.625-.784-.004-.165-.05-.25-.183-.32-.211-.114-.266-.079-.938.585l-.637.633-.597-.59ZM2.103 2.393 2 2.515v17.293l.09.101c.07.082.55.246 2.992 1.016 1.602.504 2.922.918 2.941.918.016 0 .032-.696.032-1.543 0-1.492-.004-1.543-.075-1.543-.09 0-.277-.211-.277-.313a.37.37 0 0 1 .215-.34l.137-.066v-14l-.125-.043c-3.012-.957-5.5-1.723-5.598-1.723-.098 0-.156.032-.23.121ZM5.3 4.91c.406.086.738.27 1.054.586.754.746.844 1.828.262 3.043-.316.652-.875 1.387-1.387 1.82-.19.164-.257.196-.382.196-.145 0-.188-.032-.532-.364-.476-.457-.93-1.062-1.18-1.566-.546-1.113-.558-2.05-.038-2.836.21-.313.46-.523.836-.703.48-.23.863-.281 1.367-.176Zm-.196 6.484c.094.09.098.114.098.598 0 .492-.004.508-.101.61-.153.148-.364.14-.5-.02-.098-.113-.102-.14-.102-.582 0-.442.004-.469.102-.582a.333.333 0 0 1 .503-.024Zm-.015 2.125c.074.059.094.125.117.38.059.613.047.71-.078.84-.164.16-.426.14-.543-.048-.055-.086-.11-.836-.07-.984.058-.242.379-.348.574-.188Zm.203 2.114c.066.05.121.16.164.304.031.122.094.317.137.43.043.117.078.254.078.309 0 .14-.2.324-.352.324-.199 0-.324-.164-.465-.598-.152-.48-.152-.586-.007-.734.136-.137.3-.149.445-.035Zm1.195 1.933c.18.117.34.215.36.215.074 0 .16.242.132.38a.35.35 0 0 1-.39.265c-.238-.043-.777-.426-.844-.598-.078-.207.106-.469.336-.477.047 0 .227.098.406.215ZM3.602 6.343a1.424 1.424 0 0 1 1.027-.75c.48-.067.883.066 1.223.406.316.316.421.578.418 1.039-.004.773-.403 1.598-1.196 2.477l-.207.226-.3-.316c-.755-.805-1.153-1.696-1.114-2.496.012-.293.035-.375.149-.586Zm1.597.656c0-.152-.05-.238-.18-.305-.222-.12-.519.055-.519.305 0 .156.184.351.332.351.219 0 .367-.14.367-.351Z" clip-rule="evenodd"/>
</symbol>
<symbol id="question" viewBox="0 0 24 24"><path fill="currentColor" d="M12 2C6.48 2 2 6.473 2 11.995 2 17.52 6.48 22 12 22c5.525 0 10-4.479 10-10.005C22 6.473 17.525 2 12 2Zm.713 15.559c-.232.207-.501.31-.806.31a1.22 1.22 0 0 1-.826-.306c-.235-.204-.353-.49-.353-.857 0-.325.114-.6.341-.821.228-.223.507-.334.838-.334.325 0 .6.111.822.334.222.222.333.496.333.821 0 .362-.116.646-.349.853Zm2.896-7.18c-.178.331-.39.617-.636.857-.245.24-.686.645-1.322 1.213-.176.16-.317.302-.423.423a1.72 1.72 0 0 0-.236.333 1.61 1.61 0 0 0-.12.303c-.028.1-.07.278-.129.531-.097.538-.405.806-.922.806a.945.945 0 0 1-.679-.263c-.183-.176-.274-.437-.274-.783 0-.434.067-.81.201-1.128.134-.318.313-.597.535-.838.223-.24.522-.526.9-.857.33-.29.57-.507.717-.655a2.22 2.22 0 0 0 .372-.492c.101-.181.15-.377.15-.59 0-.413-.152-.761-.46-1.046-.308-.284-.705-.426-1.19-.426-.57 0-.988.143-1.257.43-.269.287-.496.71-.682 1.268-.176.584-.51.876-1 .876a.985.985 0 0 1-.733-.306c-.2-.204-.299-.425-.299-.663 0-.49.158-.989.473-1.493.316-.504.776-.921 1.38-1.252.605-.33 1.311-.496 2.117-.496.75 0 1.411.138 1.985.415.574.276 1.017.652 1.33 1.128.313.476.47.992.47 1.55 0 .44-.09.825-.268 1.155Z"/>
</symbol>
<symbol id="radio" viewBox="0 0 20 20"><rect width="10" height="10" x="5" y="5" fill="currentColor" rx="5"/><path fill="currentColor" d="M10 18a8 8 0 0 1-8-8h-4c0 6.627 5.373 12 12 12v-4Zm8-8a8 8 0 0 1-8 8v4c6.627 0 12-5.373 12-12h-4Zm-8-8a8 8 0 0 1 8 8h4c0-6.627-5.373-12-12-12v4Zm0-4C3.373-2-2 3.373-2 10h4a8 8 0 0 1 8-8v-4Z"/>
</symbol>
<symbol id="read-all" viewBox="0 0 24 24"><path fill="currentColor" fill-rule="evenodd" d="M6 3a3 3 0 0 0-3 3v12a3 3 0 0 0 3 3h12a3 3 0 0 0 3-3v-4a1 1 0 1 0-2 0v4a1 1 0 0 1-1 1H6a1 1 0 0 1-1-1V6a1 1 0 0 1 1-1h13a1 1 0 1 0 2 0 2 2 0 0 0-2-2H6Zm14.728 6.465a.813.813 0 0 0 0-1.214.984.984 0 0 0-1.314 0l-7.228 6.677-4.6-4.249a.984.984 0 0 0-1.314 0 .813.813 0 0 0 0 1.214l5.257 4.856a.97.97 0 0 0 .657.251.97.97 0 0 0 .657-.251l7.885-7.284Z" clip-rule="evenodd"/>
</symbol>
<symbol id="reset" viewBox="0 0 24 24"><path fill="currentColor" fill-rule="evenodd" d="M13.5 19a6.5 6.5 0 1 0-6.335-7.962l2.261-1.306a1 1 0 0 1 1 1.732l-4.33 2.5a1 1 0 0 1-1.366-.366l-2.5-4.33a1 1 0 0 1 1.732-1l1.279 2.214A8.5 8.5 0 1 1 5.75 16h2.27a6.495 6.495 0 0 0 5.479 3Z" clip-rule="evenodd"/>
</symbol>
<symbol id="search" viewBox="0 0 24 24"><path fill="currentColor" fill-rule="evenodd" d="M16.765 15.22A7.645 7.645 0 0 0 5.24 5.24a7.643 7.643 0 0 0 9.982 11.526l3.915 3.915a1.092 1.092 0 0 0 1.544-1.544l-3.915-3.915Zm-2.261-8.437a5.46 5.46 0 1 1-7.721 7.72 5.46 5.46 0 0 1 7.72-7.72Z" clip-rule="evenodd"/>
</symbol>
<symbol id="security-code" viewBox="0 0 21 20"><path fill="currentColor" fill-rule="evenodd" d="m15.776 6.555-3 .979A1.12 1.12 0 0 0 12 8.604v1.956c0 .281.01.542.023.795a.375.375 0 0 1-.375.395H3c-.827 0-1.5-.673-1.5-1.5V6.5C1.5 5.673 2.173 5 3 5h13.5c.827 0 1.5.673 1.5 1.5a.41.41 0 0 1-.155.322c-.097.07-.221.108-.336.07l-1.035-.336a1.128 1.128 0 0 0-.698 0ZM5.1 8.938a.375.375 0 0 0-.137-.513l-.087-.05.087-.05a.375.375 0 1 0-.375-.65l-.087.05v-.1a.375.375 0 1 0-.75 0v.1l-.087-.05a.376.376 0 0 0-.375.65l.087.05-.087.05a.375.375 0 1 0 .375.65l.087-.05v.1a.375.375 0 1 0 .75 0v-.1l.087.05a.375.375 0 0 0 .512-.137Zm3 0a.375.375 0 0 0-.137-.513l-.087-.05.087-.05a.375.375 0 1 0-.375-.65l-.087.05v-.1a.375.375 0 1 0-.75 0v.1l-.087-.05a.376.376 0 0 0-.375.65l.087.05-.087.05a.375.375 0 1 0 .375.65l.087-.05v.1a.375.375 0 1 0 .75 0v-.1l.087.05a.375.375 0 0 0 .512-.137Zm3 0a.375.375 0 0 0-.137-.513l-.087-.05.087-.05a.375.375 0 1 0-.375-.65l-.087.05v-.1a.375.375 0 1 0-.75 0v.1l-.087-.05a.376.376 0 0 0-.375.65l.087.05-.087.05a.375.375 0 1 0 .375.65l.087-.05v.1a.375.375 0 1 0 .75 0v-.1l.087.05a.375.375 0 0 0 .512-.137Zm5.142-1.67 3 .978c.154.05.259.195.259.357v1.957c0 2.639-.422 3.603-3.217 4.905a.372.372 0 0 1-.316 0c-2.795-1.302-3.217-2.266-3.217-4.905V8.603c0-.162.105-.306.259-.357l3-.978a.383.383 0 0 1 .232 0Zm-.116 6.565a.375.375 0 0 0 .171-.042c1.278-.655 1.644-1.17 1.703-2.398a.375.375 0 0 0-.374-.393H16.5V9.202a.377.377 0 0 0-.491-.356l-1.5.49a.376.376 0 0 0-.259.356v1.683c0 .207.168.375.375.375h1.125v1.708a.375.375 0 0 0 .375.375Z" clip-rule="evenodd"/>
</symbol>
<symbol id="security" viewBox="0 0 24 24"><path fill="currentColor" d="M11.707 2.072a3.35 3.35 0 0 0-.49.376A9.013 9.013 0 0 1 7.516 4.5c-.802.226-2.012.387-2.904.39-.555.005-.751.09-.92.411-.081.153-.081.196-.081 2.894-.004 2.964.007 3.207.234 4.634.709 4.45 3.123 7.34 7.525 8.998.654.247.646.247 1.58-.125 1.269-.5 2.486-1.192 3.42-1.947a12.66 12.66 0 0 0 1.715-1.772c1.06-1.408 1.73-3.081 2.074-5.193.219-1.353.234-1.638.23-4.595 0-2.73 0-2.737-.086-2.902a.648.648 0 0 0-.434-.36 6.786 6.786 0 0 0-.786-.058c-2.532-.086-4.618-.888-6.3-2.428-.49-.446-.74-.532-1.076-.376Zm3.646 7.34c.255.27.466.509.474.524.008.02-.986.97-2.203 2.12-2.25 2.116-2.422 2.26-2.7 2.26-.282-.004-.4-.105-1.526-1.353L8.24 11.677c-.07-.079-.06-.09.446-.536.285-.25.528-.462.544-.47.015-.003.407.411.872.927.466.517.869.943.892.947.028.004.9-.81 1.945-1.807 1.045-.997 1.91-1.814 1.925-1.814.012-.004.231.219.49.488Z"/>
</symbol>
<symbol id="settings" viewBox="0 0 24 24"><path fill="currentColor" fill-rule="evenodd" d="M12 16a4 4 0 1 0 0-8 4 4 0 0 0 0 8Zm0-2a2 2 0 1 0 0-4 2 2 0 0 0 0 4Z" clip-rule="evenodd"/><mask id="a" fill="currentColor"><path fill-rule="evenodd" d="M10.1 3.5a1 1 0 0 1 1-1h1.8a1 1 0 0 1 1 1v1.14a7.537 7.537 0 0 1 1.96.812l.807-.806a1 1 0 0 1 1.414 0l1.273 1.273a1 1 0 0 1 0 1.414l-.806.806c.357.605.633 1.264.813 1.96H20.5a1 1 0 0 1 1 1v1.8a1 1 0 0 1-1 1h-1.14a7.554 7.554 0 0 1-.812 1.962l.806.806a1 1 0 0 1 0 1.414l-1.273 1.273a1 1 0 0 1-1.414 0l-.806-.806a7.558 7.558 0 0 1-1.961.813v1.14a1 1 0 0 1-1 1h-1.8a1 1 0 0 1-1-1v-1.14a7.553 7.553 0 0 1-1.96-.813l-.807.806a1 1 0 0 1-1.414 0L4.646 18.08a1 1 0 0 1 0-1.414l.806-.806a7.554 7.554 0 0 1-.812-1.96H3.5a1 1 0 0 1-1-1v-1.8a1 1 0 0 1 1-1h1.14a7.537 7.537 0 0 1 .812-1.96l-.806-.807a1 1 0 0 1 0-1.414L5.92 4.646a1 1 0 0 1 1.414 0l.806.806a7.554 7.554 0 0 1 1.96-.812V3.5ZM12 18a6 6 0 1 0 0-12 6 6 0 0 0 0 12Z" clip-rule="evenodd"/></mask><path fill="currentColor" d="M13.9 4.64h-2v1.55l1.502.386.498-1.937Zm1.96.812-1.017 1.722 1.335.789 1.097-1.097-1.414-1.414Zm.807-.806L18.08 6.06l-1.414-1.414Zm1.414 0L16.667 6.06l1.414-1.414Zm1.273 1.273 1.414-1.414-1.414 1.414Zm0 1.414 1.414 1.414-1.414-1.414Zm-.806.806-1.414-1.414-1.097 1.097.789 1.335 1.722-1.018Zm.813 1.96-1.937.5.386 1.5h1.55v-2Zm0 3.8v-2h-1.55l-.387 1.502 1.937.499Zm-.813 1.962-1.722-1.018-.789 1.335 1.097 1.097 1.414-1.414Zm.806.806 1.414-1.414-1.414 1.414Zm0 1.414-1.414-1.414 1.414 1.414Zm-2.687 1.273-1.414 1.414 1.414-1.414Zm-.806-.806 1.414-1.415-1.097-1.096-1.335.789 1.018 1.722Zm-1.961.813-.498-1.937-1.502.386v1.55h2Zm-3.8 0h2v-1.55l-1.502-.387-.498 1.936Zm-1.96-.813 1.017-1.722-1.335-.79-1.097 1.098 1.414 1.414Zm-.807.806 1.414 1.414-1.414-1.414Zm-1.414 0 1.414-1.414-1.414 1.414ZM4.646 18.08l1.414-1.414-1.414 1.414Zm0-1.414-1.414-1.414 1.414 1.414Zm.806-.806 1.415 1.414 1.096-1.097-.789-1.335-1.722 1.018ZM4.64 13.9l1.937-.499L6.19 11.9H4.64v2Zm-2.139-1h-2 2Zm0-1.8h2-2Zm2.14-1v2h1.55l.386-1.502L4.64 10.1Zm.812-1.96 1.722 1.017.789-1.335-1.097-1.097L5.452 8.14Zm-.806-.807L3.232 8.747l1.414-1.414Zm0-1.414L3.232 4.505l1.414 1.414ZM5.92 4.646 4.505 3.232l1.414 1.414Zm1.414 0 1.414-1.414-1.414 1.414Zm.806.806L6.725 6.866 7.82 7.963l1.336-.789-1.018-1.722Zm1.96-.812.498 1.937L12.1 6.19V4.64h-2Zm1-4.14a3 3 0 0 0-3 3h4a1 1 0 0 1-1 1v-4Zm1.8 0h-1.8v4h1.8v-4Zm3 3a3 3 0 0 0-3-3v4a1 1 0 0 1-1-1h4Zm0 1.14V3.5h-4v1.14h4Zm.978-.91a9.552 9.552 0 0 0-2.48-1.028l-.996 3.874c.512.132.996.335 1.441.598l2.035-3.444Zm-1.625-.498-.806.806 2.828 2.828.806-.806-2.828-2.828Zm4.242 0a3 3 0 0 0-4.242 0L18.08 6.06a1 1 0 0 1-1.414 0l2.828-2.828Zm1.273 1.273-1.273-1.273-2.828 2.828 1.273 1.273 2.828-2.828Zm0 4.242a3 3 0 0 0 0-4.242L17.94 7.333a1 1 0 0 1 0-1.414l2.828 2.828Zm-.806.806.806-.806L17.94 5.92l-.806.806 2.828 2.828Zm1.335.048a9.55 9.55 0 0 0-1.027-2.48l-3.444 2.036c.263.445.466.93.598 1.441l3.873-.997ZM20.5 8.1h-1.14v4h1.14v-4Zm3 3a3 3 0 0 0-3-3v4a1 1 0 0 1-1-1h4Zm0 1.8v-1.8h-4v1.8h4Zm-3 3a3 3 0 0 0 3-3h-4a1 1 0 0 1 1-1v4Zm-1.14 0h1.14v-4h-1.14v4Zm.91.978a9.56 9.56 0 0 0 1.027-2.48l-3.873-.997a5.553 5.553 0 0 1-.598 1.442l3.444 2.035Zm-3.136.397.806.806 2.828-2.828-.806-.807-2.828 2.829Zm.806.806a1 1 0 0 1 0-1.414l2.828 2.828a3 3 0 0 0 0-4.242L17.94 18.08Zm0-1.414-1.273 1.273 2.828 2.828 1.273-1.273-2.828-2.828Zm-1.273 1.273a1 1 0 0 1 1.414 0l-2.828 2.828a3 3 0 0 0 4.242 0l-2.828-2.828Zm1.414 0-.806-.807-2.828 2.829.806.806 2.828-2.828ZM14.4 21.297a9.552 9.552 0 0 0 2.48-1.027l-2.036-3.444c-.445.263-.93.466-1.441.598l.997 3.873Zm1.5-.797v-1.14h-4v1.14h4Zm-3 3a3 3 0 0 0 3-3h-4a1 1 0 0 1 1-1v4Zm-1.8 0h1.8v-4h-1.8v4Zm-3-3a3 3 0 0 0 3 3v-4a1 1 0 0 1 1 1h-4Zm0-1.14v1.14h4v-1.14h-4Zm-.978.91a9.56 9.56 0 0 0 2.48 1.027l.996-3.873a5.554 5.554 0 0 1-1.441-.598L7.122 20.27Zm1.625.498.807-.806-2.829-2.828-.806.806 2.828 2.828Zm-4.242 0a3 3 0 0 0 4.242 0L5.92 17.94a1 1 0 0 1 1.414 0l-2.828 2.828Zm-1.273-1.273 1.273 1.273 2.828-2.828-1.273-1.273-2.828 2.828Zm0-4.242a3 3 0 0 0 0 4.242l2.828-2.828a1 1 0 0 1 0 1.414l-2.828-2.828Zm.806-.806-.806.806L6.06 18.08l.807-.806-2.829-2.828Zm-1.335-.048a9.555 9.555 0 0 0 1.027 2.48l3.444-2.036a5.555 5.555 0 0 1-.598-1.442l-3.873.998Zm.797 1.5h1.14v-4H3.5v4Zm-3-3a3 3 0 0 0 3 3v-4a1 1 0 0 1 1 1h-4Zm0-1.8v1.8h4v-1.8h-4Zm3-3a3 3 0 0 0-3 3h4a1 1 0 0 1-1 1v-4Zm1.14 0H3.5v4h1.14v-4Zm-.91-.977a9.554 9.554 0 0 0-1.027 2.48l3.873.996c.132-.512.335-.996.598-1.441L3.73 7.122Zm-.498 1.625.806.807 2.828-2.829-.806-.806-2.828 2.828Zm0-4.242a3 3 0 0 0 0 4.242L6.06 5.92a1 1 0 0 1 0 1.414L3.232 4.505Zm1.273-1.273L3.232 4.505 6.06 7.333 7.333 6.06 4.505 3.232Zm4.242 0a3 3 0 0 0-4.242 0L7.333 6.06a1 1 0 0 1-1.414 0l2.828-2.828Zm.806.806-.806-.806L5.92 6.06l.806.806 2.828-2.828Zm.048-1.336a9.555 9.555 0 0 0-2.48 1.028l2.036 3.444c.445-.263.93-.466 1.441-.598l-.997-3.874ZM8.1 3.5v1.14h4V3.5h-4ZM16 12a4 4 0 0 1-4 4v4a8 8 0 0 0 8-8h-4Zm-4-4a4 4 0 0 1 4 4h4a8 8 0 0 0-8-8v4Zm-4 4a4 4 0 0 1 4-4V4a8 8 0 0 0-8 8h4Zm4 4a4 4 0 0 1-4-4H4a8 8 0 0 0 8 8v-4Z" mask="url(#a)"/>
</symbol>
<symbol id="shop" viewBox="0 0 24 24"><path fill="currentColor" fill-rule="evenodd" d="M11.514 4.995a3.376 3.376 0 0 1 2.564-2.436c.412-.092 1.073-.074 1.503.038a3.376 3.376 0 0 1 2.397 2.398c.07.252.086.427.1 1.158l.015.865h1.481c1.414 0 1.492.004 1.63.074a.498.498 0 0 1 .222.223c.074.145.074.204.074 6.4 0 4.492-.011 6.311-.04 6.452a1.68 1.68 0 0 1-.843 1.118c-.394.207-.509.215-2.405.204l-1.714-.011.144-.238c.078-.13.178-.33.223-.445.02-.055.039-.104.055-.153.127-.387.127-.816.127-4.677 0-2.903-.011-4.136-.04-4.277a1.694 1.694 0 0 0-1.289-1.288c-.137-.03-1.336-.04-3.96-.04H7.993V8.91c0-1.38.004-1.459.074-1.596a.497.497 0 0 1 .223-.223c.137-.07.215-.074 1.63-.074h1.48l.015-.865c.014-.731.03-.906.1-1.158Zm4.79-.724a2.02 2.02 0 0 0-1.023-.594 2.226 2.226 0 0 0-1.585.193c-.304.163-.753.612-.91.91-.214.408-.266.708-.266 1.521v.717h4.453v-.716c0-.594-.011-.769-.075-1.007a2.02 2.02 0 0 0-.593-1.024ZM2.575 11.77a.533.533 0 0 1 .215-.22c.134-.073.238-.073 6.405-.077h.015c6.224 0 6.283 0 6.428.074a.498.498 0 0 1 .222.223c.075.145.075.212.075 4.173 0 2.806-.011 4.087-.041 4.224a1.71 1.71 0 0 1-1.288 1.288c-.282.06-10.502.06-10.776 0a1.694 1.694 0 0 1-1.288-1.288c-.03-.14-.041-1.362-.041-4.224 0-3.961 0-4.028.074-4.173Zm4.38 2.832c0-.549-.057-.705-.298-.827a.502.502 0 0 0-.542.018c-.252.152-.289.279-.263.973.015.427.04.668.096.883a3.388 3.388 0 0 0 2.48 2.42c.382.097 1.198.086 1.588-.021a3.382 3.382 0 0 0 2.397-2.399c.06-.219.082-.453.096-.89.019-.558.015-.61-.059-.754a.584.584 0 0 0-.49-.305c-.17 0-.4.145-.482.305-.06.115-.07.219-.07.597 0 .81-.179 1.285-.669 1.771a2.02 2.02 0 0 1-1.024.594 2.086 2.086 0 0 1-1.069 0 2.02 2.02 0 0 1-1.024-.594c-.49-.486-.668-.961-.668-1.77Z" clip-rule="evenodd"/>
</symbol>
<symbol id="slots" viewBox="0 0 24 24"><path fill="currentColor" fill-rule="evenodd" d="M13.924 11.8a10.748 10.748 0 0 0-1.225 4.986v1.095H8.57c.01-1.807.412-3.517 1.125-5.054l-.031.075a19.092 19.092 0 0 1 2.948-4.62H6.487V5.08H17.25v1.698A29.114 29.114 0 0 0 14 11.642l-.077.158Zm5.775 3.552a6.64 6.64 0 0 0-1.305 2.81l-.007.043-.131.656-3.631-.665a8.36 8.36 0 0 1 2.907-4.862l.015-.012-2.625-.516 1.103-2.328 6.475 1.278-.201 1.015c-.959.785-1.81 1.63-2.574 2.55l-.025.031Zm-12.99.468c0-.557.07-1.098.19-1.57l.026-.12a16.85 16.85 0 0 1 1.242-3.345L7.923 9.78 1.5 11.32v2.555l2.623-.62a8.251 8.251 0 0 0-.867 3.693c0 .701.087 1.382.239 1.976l3.561-.875-.157-.656.01.045c-.13-.517-.2-1.06-.2-1.617Z" clip-rule="evenodd"/>
</symbol>
<symbol id="speed" viewBox="0 0 24 24"><path fill="currentColor" fill-rule="evenodd" d="M12.59 5.221v1.85l.226.028a6.427 6.427 0 0 1 2.991 1.222l.227.176 1.308-1.308L18.65 5.88l-.285-.242c-.496-.414-1.316-.937-1.968-1.258-1.152-.562-2.199-.85-3.58-.987l-.227-.024V5.22Zm-1.64-1.808c-1.418.145-2.96.672-4.186 1.43-.363.226-1 .686-1.254.913l-.148.133 1.304 1.304 1.304 1.3.29-.21c.3-.223.64-.434.925-.575.53-.27 1.44-.546 1.991-.609l.242-.027V5.22c0-1.738-.004-1.85-.066-1.847l-.034.004c-.07.007-.218.022-.368.035ZM2.6 9.933c.356-.971 1.023-2.135 1.656-2.896l.262-.317 1.308 1.308L7.13 9.333l-.254.343a6.308 6.308 0 0 0-1.125 2.75l-.05.354H2l.027-.265c.09-.902.29-1.812.574-2.581Zm15.576-1.9-1.3 1.3.254.343c.57.773.992 1.8 1.128 2.76l.047.344h1.847c1.457 0 1.847-.011 1.847-.05 0-.196-.137-1.14-.219-1.508-.324-1.472-1.097-3.069-2.026-4.182l-.078-.092c-.107-.127-.185-.22-.188-.22-.004 0-.593.586-1.312 1.304Zm-7.813 6.173c-.539-1.117.078-2.367 1.308-2.636.23-.05.668-.016.949.082.484.164.816.496 1.687 1.695.73 1.007 2.998 4.431 3.108 4.693a.568.568 0 0 1-.531.793c-.172 0-.25-.043-1.02-.535-.46-.293-1.366-.89-2.018-1.328-2.476-1.66-3.245-2.268-3.483-2.764Zm-8.337.007c.23 2.363 1.144 4.39 2.71 6.033.336.356.488.426.754.348.14-.043.324-.207 1.136-1.012 1.285-1.28 1.289-1.284.71-1.944-.909-1.039-1.46-2.226-1.604-3.464l-.027-.222H2l.027.261Zm15.768 1.699a6.27 6.27 0 0 0 .48-1.738l.027-.222h1.847c1.46 0 1.851.011 1.851.05 0 .16-.125 1.082-.195 1.406a9.96 9.96 0 0 1-2.48 4.78c-.546.581-.738.585-1.316.019-.19-.184-.343-.344-.343-.36 0-.01.062-.054.136-.093.18-.098.535-.472.64-.68.227-.44.255-.995.071-1.444-.05-.133-.265-.504-.476-.828l-.379-.59.137-.3Z" clip-rule="evenodd"/>
</symbol>
<symbol id="sport-book" viewBox="0 0 24 24"><path fill="currentColor" fill-rule="evenodd" d="M10.291 8.786a3.727 3.727 0 0 1-3.727-3.727c0-.848.287-1.628.765-2.255-1.258-.987-3.497-1.111-4.492-.117-1.064 1.065-.847 3.558.34 4.744.503.504 3.335 2.906 6.423 5.502.408-1.252 1.049-2.478 2.043-3.473.265-.265.548-.504.842-.721l-.118-.14-.248-.294a3.706 3.706 0 0 1-1.828.48Zm10.334 9.318-.169.169-.614-.738-.028.03-.032.034c-.751.75-1.634 1.3-2.567 1.701l1.208 1.006-.17.17a.719.719 0 0 0 1.017 1.016l2.372-2.372a.72.72 0 0 0-1.017-1.016Zm-8.502-8.165c3.304-3.304 9.573-2.393 9.573-2.393s.912 6.269-2.393 9.573c-3.305 3.305-9.574 2.394-9.574 2.394s-.911-6.27 2.394-9.574Zm5.623 2.037.776.776.48-.479-.777-.777.438-.438-.48-.479-.438.438-.776-.776-.48.479.777.776-.537.538-.777-.777-.479.479.777.777-.537.537-.777-.777-.48.48.777.776-.537.538-.777-.777-.479.479.777.777-.537.537-.777-.777-.48.48.778.776-.439.438.48.48.438-.439.777.777.479-.479-.777-.777.537-.537.777.777.48-.48-.778-.776.538-.537.777.776.479-.479-.777-.777.537-.537.777.777.479-.48-.777-.776.538-.537ZM6.902 14.207h-2.71v-1.355a1.355 1.355 0 0 1 2.71 0v1.355Zm-1.694.704v6.953l-1.033-.413 1.033-6.54Zm2.4 6.558L8.935 22l-2.033-7.115H6.57l1.04 6.584Zm-1.722.395v-6.953l1.033 6.54-1.033.413Zm-1.36-6.98h-.334L2.16 22l1.328-.531 1.04-6.584ZM12.298 2.77l.001-.001a3.04 3.04 0 0 1 0 4.582l-.001-.002c-.408-.512-.651-1.368-.651-2.29 0-.92.243-1.776.651-2.289ZM8.284 7.35l.001-.002c.408-.512.651-1.368.651-2.29 0-.92-.243-1.776-.651-2.289l-.001-.001a3.04 3.04 0 0 0 0 4.582Zm3.462-4.971c-.486.63-.777 1.627-.777 2.68 0 1.053.29 2.05.777 2.68a3.032 3.032 0 0 1-1.455.37 3.032 3.032 0 0 1-1.454-.37c.486-.63.777-1.627.777-2.68 0-1.053-.29-2.05-.777-2.68a3.032 3.032 0 0 1 1.454-.37c.527 0 1.023.134 1.455.37Z" clip-rule="evenodd"/>
</symbol>
<symbol id="sport" viewBox="0 0 24 24"><path fill="currentColor" d="M11.295 1.894c-.074.007-.305.035-.509.055-1.292.141-2.721.63-3.876 1.322A10.173 10.173 0 0 0 3.37 6.83c-.685 1.149-1.139 2.487-1.323 3.896-.063.485-.063 1.957 0 2.441.321 2.452 1.394 4.527 3.21 6.223a9.777 9.777 0 0 0 3.61 2.122C9.94 21.87 10.79 22 12 22c.893 0 1.288-.035 2.075-.197 2.698-.555 5.106-2.295 6.555-4.74.685-1.148 1.139-2.487 1.323-3.896.063-.484.063-1.956 0-2.44-.184-1.41-.638-2.748-1.323-3.897a10.174 10.174 0 0 0-3.54-3.559 10.103 10.103 0 0 0-3.837-1.322c-.345-.048-1.715-.083-1.958-.055Zm-.94 2.782 1.038.756.008 1.516.008 1.515-1.214.886c-.67.488-1.245.901-1.28.917-.043.02-.537-.122-1.453-.421-.763-.248-1.398-.469-1.413-.484-.02-.016-.243-.685-.502-1.488l-.47-1.453.161-.2c.274-.339 1.002-1.036 1.394-1.331a8.684 8.684 0 0 1 1.883-1.11l.372-.165.216.15 1.252.912Zm5.635-.66c.419.208.94.542 1.378.873.392.295 1.12.992 1.394 1.33l.16.201-.47 1.453c-.258.803-.481 1.472-.5 1.488-.016.015-.65.236-1.414.484-.916.299-1.41.44-1.453.421a48.48 48.48 0 0 1-1.28-.917l-1.214-.886.008-1.515.008-1.516 1.249-.91 1.245-.908.301.126c.165.07.427.193.588.275Zm-8.297 7.14c.419.137.783.267.807.295.039.04.967 2.87.967 2.956 0 .024-.392.586-.873 1.252l-.877 1.208H4.635l-.157-.248c-.27-.417-.689-1.322-.873-1.885-.282-.858-.52-2.295-.403-2.421.027-.028.591-.445 1.257-.93l1.21-.88.63.204c.349.114.975.315 1.394.449Zm11.864.24c.634.46 1.182.866 1.221.901.055.055.06.114.028.465a9.466 9.466 0 0 1-.411 1.972c-.184.563-.603 1.468-.873 1.885l-.157.248h-3.081l-.878-1.208c-.481-.666-.873-1.229-.873-1.252 0-.055.905-2.862.944-2.933.043-.07 2.83-.984 2.886-.944.023.015.56.405 1.194.866Zm-5.188 4.83.87 1.208.085.122-.477 1.476-.482 1.476-.317.087c-1.187.31-2.91.31-4.096 0l-.317-.087-.482-1.476-.477-1.476.086-.122.87-1.209.782-1.086h3.172l.783 1.087Z"/>
</symbol>
<symbol id="star" viewBox="0 0 24 24"><path fill="currentColor" d="m12 2 2.245 6.91h7.266l-5.878 4.27 2.245 6.91L12 15.82l-5.878 4.27 2.245-6.91L2.49 8.91h7.266L12 2Z"/>
</symbol>
<symbol id="steam" viewBox="0 0 24 24"><path fill="currentColor" d="M17 3.65a5.002 5.002 0 0 0-4.993 4.865l-3.059 4.372a3.738 3.738 0 0 0-.698-.07c-.79 0-1.522.248-2.127.667L2 11.854v4.48l2.588 1.024a3.754 3.754 0 0 0 3.662 2.959 3.75 3.75 0 0 0 3.682-3.075l4.81-3.605c.086.004.171.013.258.013 2.758 0 5-2.242 5-5 0-2.757-2.242-5-5-5Zm0 1.667a3.337 3.337 0 0 1 3.333 3.333A3.337 3.337 0 0 1 17 11.983a3.337 3.337 0 0 1-3.333-3.333A3.337 3.337 0 0 1 17 5.317Zm0 .833a2.5 2.5 0 1 0 0 5 2.5 2.5 0 0 0 0-5Zm-8.75 7.5a2.92 2.92 0 0 1 2.917 2.917 2.92 2.92 0 0 1-2.917 2.916 2.917 2.917 0 0 1-2.658-1.728l1.891.748c.252.1.51.149.765.149a2.083 2.083 0 0 0 .769-4.022l-1.898-.752c.348-.147.73-.228 1.131-.228Z"/>
</symbol>
<symbol id="table-games" viewBox="0 0 24 24"><path fill="currentColor" d="M6.653 2.04c-.063.023-.156.07-.2.093-.046.027-.66.739-1.367 1.583a73.152 73.152 0 0 1-1.388 1.638c-.332.316-.496 1.133-.336 1.669A2.26 2.26 0 0 0 4.835 8.52c.38.12.939.113 1.341-.02.168-.055.313-.102.32-.102.012 0 .02.333.02.743v.739l-.36.011-.363.012v.781l1.126.013 1.121.007v-.82h-.703v-.747c0-.696.004-.746.07-.72.415.177 1.056.24 1.454.142.587-.145 1.188-.618 1.439-1.138.32-.652.297-1.282-.075-1.895-.144-.235-2.603-3.198-2.767-3.334-.215-.172-.586-.243-.805-.153Zm8.357 1.023c-.646.18-1.15.594-1.423 1.169a1.92 1.92 0 0 0-.184.98c.023.364.121.661.32.974.079.125.727.91 1.439 1.751 1.153 1.356 1.32 1.536 1.493 1.618.395.184.707.086 1.075-.332.887-1 2.556-3.017 2.657-3.213.16-.293.255-.727.223-1.012-.09-.805-.637-1.52-1.38-1.798-.617-.23-1.496-.152-2.067.18l-.16.094-.23-.137a2.722 2.722 0 0 0-.486-.223c-.332-.105-.992-.133-1.278-.05Zm1.473 10.257c-.547.175-.993.546-1.227 1.015-.157.313-.204.505-.239.946l-.027.336-.164.051c-.31.09-.552.246-.829.524-.399.402-.602.88-.602 1.41 0 1.17 1 2.12 2.15 2.041.324-.023.684-.137.907-.281l.148-.098v1.876h-.703V22h2.227v-.86h-.703v-1.876l.148.098c.36.238.99.348 1.462.258a2.085 2.085 0 0 0 1.618-1.614c.141-.673-.12-1.45-.645-1.916-.195-.172-.61-.394-.813-.441l-.128-.028v-.32c0-.176-.028-.426-.063-.551-.172-.673-.735-1.24-1.419-1.443-.285-.085-.82-.078-1.098.012Zm-9.771.027c-.079.05-2.627 3.435-3.018 4.014a.545.545 0 0 0-.11.285c0 .133-.066.039 2.377 3.346.47.637.72.938.794.973a.44.44 0 0 0 .472-.113c.266-.282 3.037-4.038 3.06-4.143a.362.362 0 0 0-.046-.255c-.152-.289-2.967-4.06-3.068-4.115a.516.516 0 0 0-.461.008Z"/>
</symbol>
<symbol id="telegram" viewBox="0 0 24 24"><path fill="currentColor" fill-rule="evenodd" d="M16.256 18.357a.81.81 0 0 0 .738.094.76.76 0 0 0 .483-.546c.579-2.655 1.984-9.374 2.512-11.789a.5.5 0 0 0-.174-.492.544.544 0 0 0-.531-.091C16.489 6.54 7.88 9.69 4.362 10.96a.538.538 0 0 0-.362.52.54.54 0 0 0 .396.496c1.578.46 3.649 1.1 3.649 1.1s.968 2.85 1.472 4.3a.578.578 0 0 0 .943.24l2.064-1.9s2.381 1.703 3.732 2.64Zm-7.34-5.64 1.12 3.6.248-2.28 6.79-5.971a.177.177 0 0 0 .022-.245.193.193 0 0 0-.25-.042l-7.93 4.937Z" clip-rule="evenodd"/>
</symbol>
<symbol id="tfs-token" viewBox="0 0 24 24"><path fill="currentColor" fill-rule="evenodd" d="M12 22c5.523 0 10-4.477 10-10S17.523 2 12 2 2 6.477 2 12s4.477 10 10 10Zm0-2a8 8 0 1 0 0-16 8 8 0 0 0 0 16Z" clip-rule="evenodd"/><path fill="currentColor" fill-rule="evenodd" d="M12 19A7 7 0 1 0 5.752 8.84H5.75v.004A7 7 0 0 0 12 19ZM5.75 8.844v1.394h1.44v4.926h1.602v-4.926h1.44V8.84h-4.48l-.002.003Zm12.257 5.372c.162-.302.243-.627.243-.973 0-.325-.054-.6-.162-.826a1.625 1.625 0 0 0-.46-.575 2.65 2.65 0 0 0-.337-.23 6.018 6.018 0 0 0-.4-.22 28.854 28.854 0 0 1-.643-.328c-.2-.107-.336-.2-.409-.277a.366.366 0 0 1-.109-.264c0-.118.047-.215.142-.29.094-.078.246-.116.457-.116.21 0 .438.037.683.112.246.072.495.17.749.294l.489-1.319a6.55 6.55 0 0 0-.83-.311 3.526 3.526 0 0 0-1.043-.143c-.442 0-.83.07-1.165.212a1.732 1.732 0 0 0-.78.618c-.19.271-.284.612-.284 1.021 0 .36.058.659.174.895.116.237.282.437.498.601a3.963 3.963 0 0 0 .764.463 12.207 12.207 0 0 1 .826.432c.161.098.242.231.242.398a.42.42 0 0 1-.166.342c-.11.087-.284.13-.521.13a3.3 3.3 0 0 1-.89-.139 4.981 4.981 0 0 1-.967-.393v1.522c.189.095.37.173.546.234.178.057.368.1.57.125.2.026.436.039.708.039.54 0 .98-.095 1.319-.285.34-.194.592-.443.756-.749Zm-4.169-1.427h-1.771v2.375h-1.574V8.84h3.495v1.37h-1.921v1.207h1.771v1.371Z" clip-rule="evenodd"/>
</symbol>
<symbol id="tournament" viewBox="0 0 24 24"><path fill="currentColor" fill-rule="evenodd" d="M20.944 4.371h-2.439c.01-.27.014-.541.014-.814A.557.557 0 0 0 17.962 3H6.038a.557.557 0 0 0-.557.557c0 .273.005.544.014.814H3.057a.557.557 0 0 0-.557.557c0 2.494.652 4.847 1.835 6.626 1.17 1.759 2.729 2.767 4.412 2.865.382.416.786.754 1.206 1.013v2.308h-.294c-.33 0-.618.2-.686.478l-.7 1.02H8.05c-.372 0-.549.259-.549.578v.61c0 .318.177.577.549.577h7.891c.372 0 .56-.26.56-.578v-.61c0-.318-.188-.578-.56-.578h-.22l-.7-1.019c-.066-.277-.354-.478-.685-.478h-.288v-2.308c.42-.259.824-.597 1.206-1.013 1.683-.098 3.242-1.106 4.412-2.865C20.848 9.775 21.5 7.422 21.5 4.928a.557.557 0 0 0-.556-.557ZM5.261 10.937c-.976-1.467-1.55-3.386-1.637-5.452h1.932c.2 2.54.797 4.888 1.73 6.753.148.296.303.577.464.841-.926-.35-1.783-1.08-2.489-2.142Zm13.476 0c-.706 1.062-1.563 1.792-2.489 2.142.161-.264.316-.545.465-.841.932-1.865 1.528-4.213 1.73-6.753h1.931c-.087 2.066-.66 3.985-1.637 5.452Zm-5.783-3.431L12.15 5.63a.163.163 0 0 0-.3 0l-.805 1.874-2.063.175a.16.16 0 0 0-.092.28l1.564 1.332-.468 1.982c-.033.138.119.246.242.173L12 10.397l1.773 1.05a.162.162 0 0 0 .242-.173l-.469-1.982 1.565-1.332a.16.16 0 0 0-.093-.28l-2.063-.174Z" clip-rule="evenodd"/>
</symbol>
<symbol id="trash" viewBox="0 0 24 24"><path fill="currentColor" fill-rule="evenodd" d="M12 2a2 2 0 0 0-2 2H5a1 1 0 0 0 0 2h14a1 1 0 1 0 0-2h-5a2 2 0 0 0-2-2ZM6.769 20.264 5 7h14l-1.769 13.264A2 2 0 0 1 15.25 22H8.751a2 2 0 0 1-1.982-1.736ZM7.3 9h9.4l-1.343 11H8.643L7.3 9Z" clip-rule="evenodd"/>
</symbol>
<symbol id="turbo-games" viewBox="0 0 24 24"><path fill="currentColor" fill-rule="evenodd" d="M12.518 5.196c2.436-1.839 5.263-2.95 8.094-3.176.371-.032 1.04-.024 1.13.011.188.07.258.25.258.673 0 2.507-.97 5.476-2.588 7.905-.638.962-1.119 1.549-1.987 2.433l-.578.586-.024.47c-.086 1.693-.715 3.583-1.697 5.065-.57.864-1.27 1.682-1.513 1.76-.176.059-.387-.008-.48-.148-.047-.07-.134-.572-.302-1.737l-.234-1.631-.262.23c-.286.247-.423.302-.602.235-.145-.055-5.505-5.41-5.591-5.585-.09-.192-.04-.329.222-.626l.231-.262-1.67-.242-1.673-.243-.105-.121a.366.366 0 0 1-.11-.286c0-.156.016-.18.34-.493 1.705-1.639 4.2-2.726 6.522-2.843l.47-.024.586-.579c.664-.653 1-.95 1.563-1.372ZM18.305 7.3a2.089 2.089 0 0 0-1.61-1.612 2.018 2.018 0 0 0-1.89.568c-.382.383-.625.95-.625 1.466 0 .258.106.673.243.95.32.65 1.114 1.143 1.849 1.143.258 0 .673-.106.95-.243.653-.32 1.142-1.11 1.142-1.85 0-.086-.028-.277-.059-.422ZM4.386 15.98a2.693 2.693 0 0 1 1.33-.607 1.83 1.83 0 0 1 .7-.004 2.572 2.572 0 0 1 1.516.774c.923.974.958 2.406.086 3.47-.43.528-1.81 1.17-4.312 2.003-1.326.442-1.412.457-1.596.273-.183-.183-.168-.266.278-1.603.833-2.5 1.47-3.877 1.998-4.307Z" clip-rule="evenodd"/>
</symbol>
<symbol id="twitch" viewBox="0 0 24 24"><path fill="currentColor" fill-rule="evenodd" d="M3.43 6.271 7.001 2.7h13.572v10l-6.43 6.429h-2.856L7.717 22.7v-3.571H3.43V6.27Zm12.858 8.572 2.856-2.857V4.13H7.716v10.713h3.214v2.5l2.5-2.5h2.858Zm-.716-8.214h1.43v4.283h-1.43V6.63Zm-3.928 0h1.428v4.283h-1.428V6.63Z" clip-rule="evenodd"/>
</symbol>
<symbol id="twitter" viewBox="0 0 24 24"><path fill="currentColor" d="M21 6.504a7.463 7.463 0 0 1-2.12.573 3.662 3.662 0 0 0 1.623-2.011 7.513 7.513 0 0 1-2.346.883A3.709 3.709 0 0 0 15.46 4.8c-2.039 0-3.692 1.628-3.692 3.636 0 .284.032.563.095.828a10.537 10.537 0 0 1-7.61-3.8 3.577 3.577 0 0 0-.5 1.829 3.62 3.62 0 0 0 1.643 3.026 3.737 3.737 0 0 1-1.673-.456v.045c0 1.761 1.274 3.231 2.962 3.566a3.8 3.8 0 0 1-.973.127 3.59 3.59 0 0 1-.695-.067 3.688 3.688 0 0 0 3.448 2.525 7.481 7.481 0 0 1-4.585 1.555c-.298 0-.592-.018-.881-.05A10.555 10.555 0 0 0 8.66 19.2c6.793 0 10.506-5.541 10.506-10.347l-.013-.47A7.313 7.313 0 0 0 21 6.503Z"/>
</symbol>
<symbol id="unlocked" viewBox="0 0 24 24"><path fill="currentColor" fill-rule="evenodd" d="M16.5 3A4.5 4.5 0 0 0 12 7.5v2.7H4.8A1.8 1.8 0 0 0 3 12v7.2A1.8 1.8 0 0 0 4.8 21h10.8a1.8 1.8 0 0 0 1.8-1.8V12a1.8 1.8 0 0 0-1.8-1.8h-1.8V7.5a2.7 2.7 0 1 1 5.4 0v.9H21v-.9A4.5 4.5 0 0 0 16.5 3Zm-5.428 13.275a1.8 1.8 0 1 0-1.744 0 .902.902 0 0 0-.028.225v.9a.9.9 0 1 0 1.8 0v-.9a.9.9 0 0 0-.028-.225Z" clip-rule="evenodd"/>
</symbol>
<symbol id="upload" viewBox="0 0 24 24"><path fill="currentColor" d="M12.14 10.814a.178.178 0 0 0-.218-.05.178.178 0 0 0-.063.05l-2.5 3.163a.178.178 0 0 0 .141.288h1.65v5.41c0 .1.08.18.178.18h1.34a.18.18 0 0 0 .178-.18v-5.408H14.5c.15 0 .232-.171.14-.288l-2.5-3.165Z"/><path fill="currentColor" d="M18.683 8.754a7.145 7.145 0 0 0-6.678-4.614 7.143 7.143 0 0 0-6.68 4.612A4.466 4.466 0 0 0 2 13.069a4.463 4.463 0 0 0 4.462 4.464h.895a.18.18 0 0 0 .179-.179v-1.339a.179.179 0 0 0-.179-.178h-.895a2.766 2.766 0 0 1-2.18-4.473 2.797 2.797 0 0 1 1.475-.976l.846-.221.31-.817A5.482 5.482 0 0 1 8.88 6.821a5.404 5.404 0 0 1 3.125-.987c1.127 0 2.207.342 3.124.987a5.485 5.485 0 0 1 1.967 2.529l.308.815.844.223a2.78 2.78 0 0 1 2.056 2.68c0 .74-.288 1.436-.81 1.958a2.748 2.748 0 0 1-1.956.81h-.895a.179.179 0 0 0-.179.18v1.338c0 .099.08.179.179.179h.895a4.465 4.465 0 0 0 1.145-8.779Z"/>
</symbol>
<symbol id="user-new" viewBox="0 0 24 24"><path fill="currentColor" d="M12 11.969a5 5 0 1 0 0-10 5 5 0 0 0 0 10ZM4.82 14.37c-.556.11-.914.643-.798 1.188l.984 5.614c.099.464.517.797 1.002.797h7.27a6.259 6.259 0 0 1-.938-8.953l-.137-.027a1.046 1.046 0 0 0-.406 0L4.821 14.37Z"/><path fill="currentColor" fill-rule="evenodd" d="M14.385 12.927a4.945 4.945 0 1 1 5.495 8.224 4.945 4.945 0 0 1-5.495-8.224Zm3.366 4.73h1.854a.618.618 0 0 0 0-1.236h-1.854v-1.855a.618.618 0 1 0-1.236 0v1.855H14.66a.618.618 0 1 0 0 1.236h1.855v1.855a.618.618 0 0 0 1.236 0v-1.855Z" clip-rule="evenodd"/>
</symbol>
<symbol id="user" viewBox="0 0 24 24"><path fill="currentColor" fill-rule="evenodd" d="M12 12a5 5 0 1 0 0-10 5 5 0 0 0 0 10Zm-7.18 2.401c-.556.11-.914.643-.798 1.188l.984 5.614c.099.464.517.797 1.002.797h11.984c.485 0 .903-.333 1.002-.797l.984-5.614a1.003 1.003 0 0 0-.799-1.188l-6.976-1.381a1.046 1.046 0 0 0-.406 0L4.821 14.4Z" clip-rule="evenodd"/>
</symbol>
<symbol id="video-collapse" viewBox="0 0 24 24"><path fill="currentColor" d="M22 8h-4V4h-2v4a2 2 0 0 0 2 2h4V8ZM2 8v2h4a2 2 0 0 0 2-2V4H6v4H2Zm4 12h2v-4a2 2 0 0 0-2-2H2v2h4v4Zm16-4v-2h-4a2 2 0 0 0-2 2v4h2v-4h4Z"/>
</symbol>
<symbol id="video-expand" viewBox="0 0 24 24"><path fill="currentColor" d="M16 6h4v4h2V6a2 2 0 0 0-2-2h-4v2ZM8 6V4H4a2 2 0 0 0-2 2v4h2V6h4Zm-4 8H2v4a2 2 0 0 0 2 2h4v-2H4v-4Zm12 4v2h4a2 2 0 0 0 2-2v-4h-2v4h-4Z"/>
</symbol>
<symbol id="vip" viewBox="0 0 24 24"><path fill="currentColor" fill-rule="evenodd" d="M10.07 5.1c.177-.68.779-1.281 1.447-1.442 1.646-.398 3.026 1.322 2.268 2.823a2.051 2.051 0 0 1-1.083.973c-.106.04-.192.086-.192.11 0 .023.07.297.153.606.742 2.729 1.943 4.222 3.397 4.222.723 0 1.36-.332 2.084-1.087a6.806 6.806 0 0 0 1.165-1.685c.196-.392.273-.526.243-.627-.02-.065-.087-.117-.197-.217-.402-.376-.586-.817-.535-1.302.125-1.224 1.458-1.869 2.47-1.196a1.58 1.58 0 0 1 .227 2.455c-.2.187-.453.328-.719.398-.094.024-.188.067-.203.098-.016.031-.368 1.806-.774 3.945a486.24 486.24 0 0 1-.767 3.956c-.02.067-.39.07-7.052.07s-7.033-.003-7.053-.07c-.011-.035-.355-1.818-.766-3.956-.406-2.139-.758-3.914-.774-3.945-.015-.031-.11-.074-.203-.098a1.698 1.698 0 0 1-.72-.398c-1.031-.99-.312-2.725 1.13-2.721 1.009.004 1.78.989 1.529 1.954-.082.333-.219.548-.497.81-.11.1-.176.152-.196.217-.03.101.047.235.243.627.595 1.189 1.466 2.158 2.276 2.541.36.168.621.23.965.23.575 0 1.087-.218 1.584-.671.77-.712 1.364-1.873 1.821-3.55.082-.31.153-.583.153-.606 0-.024-.086-.07-.192-.11-.93-.328-1.485-1.391-1.231-2.353ZM4.575 18.589c.117-.191.41-.434.598-.504.141-.047 1.048-.059 6.814-.059 6.454-.003 6.86-.021 7.08.172.033.029.061.063.106.102.309.27.414.512.418.926 0 .442-.254.853-.66 1.052l-.224.11H5.297l-.222-.11c-.407-.2-.661-.61-.661-1.052 0-.281.043-.445.16-.637Z" clip-rule="evenodd"/>
</symbol>
<symbol id="wallet" viewBox="0 0 24 24"><path fill="currentColor" fill-rule="evenodd" d="M2.763 4c.426-.43.829-.637 1.407-.723.11-.016 2.87-.032 6.139-.036 5.817-.003 6.211-.007 6.532.144.031.014.061.03.095.048.208.105.528.399.654.602.21.329.222.403.246 1.51l.02 1.035.629.02.625.02.294.144c.363.18.617.438.79.806l.125.262.011 1.044.012 1.04-1.341.02c-1.474.015-1.6.034-2.22.296-.865.368-1.643 1.166-1.991 2.042-.207.516-.254.778-.254 1.403 0 .626.047.888.254 1.404a3.815 3.815 0 0 0 2.06 2.068c.544.235.708.255 2.151.27l1.341.02-.012 1.04-.011 1.044-.125.262a1.632 1.632 0 0 1-.79.805l-.294.145-7.46.012c-7.227.006-7.709.022-8.094-.162-.057-.028-.112-.06-.187-.097-.43-.21-.872-.656-1.091-1.102-.04-.082-.074-.144-.103-.208C1.988 18.77 2 18.271 2 11.996c0-6.354.004-6.518.078-6.815.118-.473.317-.817.685-1.181Zm13.411 2.58.012-.832.008-.83h-5.932c-5.738.004-6.073-.008-6.247.154-.023.022-.043.046-.072.074a.743.743 0 0 0-.254.656c.02.305.16.532.423.68l.176.098h11.886Zm-.352 6.57c.188-.912.99-1.721 1.896-1.917.2-.043.638-.05 2.08-.047 1.776.008 1.827.012 1.932.09.059.043.145.13.188.188.082.105.082.149.082 2.213 0 2.065 0 2.107-.082 2.213a1.069 1.069 0 0 1-.188.188c-.105.082-.148.082-2.01.082-1.857 0-1.912-.004-2.177-.086a2.529 2.529 0 0 1-1.72-2.925Zm3.14.073a1.264 1.264 0 0 0-.25-.25c-.11-.07-.208-.098-.403-.11-.32-.015-.551.09-.727.34-.106.153-.118.196-.118.47 0 .266.012.32.106.458.059.082.172.195.254.25.121.082.188.098.442.098s.32-.016.442-.098c.082-.055.195-.168.254-.25.094-.137.105-.192.105-.454s-.011-.317-.105-.454Z" clip-rule="evenodd"/>
</symbol>
<symbol id="warning" viewBox="0 0 24 24"><path fill="currentColor" fill-rule="evenodd" d="M12 22c5.523 0 10-4.477 10-10S17.523 2 12 2 2 6.477 2 12s4.477 10 10 10ZM10.5 6a1 1 0 0 1 1-1h1a1 1 0 0 1 1 1v7a1 1 0 0 1-1 1h-1a1 1 0 0 1-1-1V6Zm3 11.5a1.5 1.5 0 1 1-3 0 1.5 1.5 0 0 1 3 0Z" clip-rule="evenodd"/>
</symbol>
<symbol id="windows" viewBox="0 0 24 24"><path fill="currentColor" d="M12 0C5.373 0 0 5.373 0 12s5.373 12 12 12 12-5.373 12-12S18.627 0 12 0Zm-1 17.001-5-.678V13h5v4.001ZM11 12H6V7.677l5-.678V12Zm7 6-6-.834V13h6v5Zm0-6h-6V6.834L18 6v6Z"/>
</symbol>
<symbol id="winners" viewBox="0 0 24 24"><path fill="currentColor" fill-rule="evenodd" d="m12 3 .944 2.674H16l-2.472 1.652.944 2.674L12 8.348 9.528 10l.944-2.674L8 5.674h3.056L12 3Zm-1 8a1 1 0 0 0-1 1v8a1 1 0 0 0 1 1h2a1 1 0 0 0 1-1v-8a1 1 0 0 0-1-1h-2Zm-7 4a1 1 0 0 0-1 1v4a1 1 0 0 0 1 1h2a1 1 0 0 0 1-1v-4a1 1 0 0 0-1-1H4Zm14-2a1 1 0 0 0-1 1v6a1 1 0 0 0 1 1h2a1 1 0 0 0 1-1v-6a1 1 0 0 0-1-1h-2Z" clip-rule="evenodd"/>
</symbol>
<symbol id="withdraw" viewBox="0 0 20 20"><path fill="currentColor" d="M16.37 2.207h-2.35a1.492 1.492 0 0 0-1.624 1.623v2.35a1.491 1.491 0 0 0 1.623 1.623h2.351a1.493 1.493 0 0 0 1.624-1.623V3.83a1.494 1.494 0 0 0-1.624-1.623Zm.179 3.654-1 1.004c0 .004-.011.005-.016.01a.511.511 0 0 1-.146.098h-.013a.48.48 0 0 1-.16.032h-.048a.509.509 0 0 1-.32-.141L13.841 5.86a.5.5 0 0 1 .707-.708l.147.148V3.506a.5.5 0 1 1 1 0v1.795l.147-.148a.5.5 0 0 1 .707.708Zm.48 3.143H2.967A.968.968 0 0 0 2 9.97v3.999a3.312 3.312 0 0 0 3.31 3.31h9.365a3.318 3.318 0 0 0 3.319-3.318v-3.99a.968.968 0 0 0-.968-.968h.002Zm-10.23 5.598h-1.6a.6.6 0 0 1 0-1.2h1.6a.6.6 0 1 1 0 1.2Zm5.197 0H8.797a.6.6 0 0 1 0-1.2h3.2a.6.6 0 1 1 0 1.2ZM2 6.819a3.303 3.303 0 0 1 3.31-3.293h4.919a.968.968 0 0 1 .967.968v2.343a.968.968 0 0 1-.967.967H2.968A.974.974 0 0 1 2 6.82Z"/>
</symbol></svg>